<?xml version="1.0" encoding="utf-8"?>
<!-- Generator: Adobe Illustrator 22.1.0, SVG Export Plug-In . SVG Version: 6.00 Build 0)  -->
<svg version="1.1" id="Layer_1" xmlns="http://www.w3.org/2000/svg" xmlns:xlink="http://www.w3.org/1999/xlink" x="0px" y="0px"
	 viewBox="0 0 2160 2160" style="enable-background:new 0 0 2160 2160;" xml:space="preserve">
<style type="text/css">
	.st0{fill:#D8522E;}
	.st1{fill:#E29488;}
	.st2{fill:#F4E8E6;}
	.st3{fill:#FFFFFF;}
	.st4{fill:#F4AD2F;}
	.st5{fill:#EAC07D;}
</style>
<g>
	<path class="st0" d="M1484.8,591.3c-7.6-0.7-12.7,7.7-8.6,14.1c67.1,105.3,77.2,188.4,73.5,245.6c-4.7,72-29.1,71.5-49.3,192.3
		c-13.5,80.7-27.3,163-4.9,261.4c12.2,53.6,25.3,69,24.7,113.4c-0.9,59.9-25.8,109.6-50,144.9c-4,5.8-0.2,13.7,6.8,14.3l180.1,16.2
		c3.2,0.3,6.4-1.1,8.3-3.7c25.9-35.7,55.2-88.7,56.1-153.7c0.6-44.5-12.5-59.8-24.7-113.4c-22.4-98.4-8.6-180.7,4.9-261.4
		c20.2-120.8,44.7-120.3,49.3-192.3c3.8-59.4-7.1-146.6-81.3-257.7c-1.6-2.3-4.1-3.9-6.9-4.1L1484.8,591.3z"/>
	<path class="st1" d="M1567.8,597.7c69.8,66.3,92.3,132,100.7,165.8c21.7,87.3,2.1,173.4-13,240c-16.6,72.8-29.6,80.8-31.7,134.6
		c-1.7,42.5,6.3,82.2,22.4,160c19.6,95.1,27.6,101.3,26.1,132.7c-1.8,37.9-16,93.6-77.8,157.6l-79.6-7.7
		c61.8-64,76.5-112.1,78.3-149.9c1.5-31.4-6.5-37.5-26.1-132.7c-16.1-77.8-24.1-117.5-22.4-160c2.1-53.8,15.1-61.9,31.7-134.6
		c15.1-66.5,34.7-152.6,13-240c-8.4-33.8-30.9-105.7-100.7-172L1567.8,597.7z"/>
	<path class="st0" d="M1343.5,576.9c-7-3.1-14.5,3.2-12.6,10.6c30.1,121.2,13.1,203.2-8.6,256.2c-27.4,66.8-50.3,58.5-108,166.6
		c-38.5,72.2-77.8,145.8-88,246.2c-5.5,54.7,2,73.4-12.8,115.4c-19.9,56.5-59.3,95.7-93.5,121.5c-5.6,4.2-4.6,12.9,1.9,15.7
		l165.6,72.7c3,1.3,6.4,1,9-0.9c35.9-25.5,80.6-66.5,102.2-127.8c14.8-42,7.2-60.7,12.8-115.4c10.2-100.4,49.4-174,88-246.2
		c57.7-108.1,80.7-99.8,108-166.6c22.6-55.1,40-141.3,5-270.1c-0.7-2.7-2.7-5-5.3-6.1L1343.5,576.9z"/>
	<path class="st1" d="M1445.4,621.1c45,85.1,45.4,154.5,42.6,189.3c-7.3,89.7-53.3,165.1-88.8,223.3
		c-38.9,63.7-53.8,67.2-72.9,117.5c-15.1,39.7-20.2,80-29.8,158.8c-11.7,96.4-6.1,104.8-17.5,134.1c-13.8,35.3-45,83.6-124,124.6
		l-73-32.6c79-41,108.2-81.9,122-117.2c11.4-29.3,5.8-37.6,17.5-134.1c9.6-78.8,14.6-119,29.8-158.8c19.2-50.3,34.1-53.8,72.9-117.5
		c35.6-58.2,81.6-133.6,88.8-223.3c2.8-34.8,4.4-110-40.6-195.1L1445.4,621.1z"/>
	<path class="st2" d="M1598.9,601.5c27.3,66.3,62.6,114.8,65.9,148.6c8.5,87.3-8.6,178.4-14.6,244.9c-6.5,72.8-4.2,81.5-12.4,134.6
		c-6.5,42.3-13,81.8,8.7,160c25.6,91.9,26.2,109.8,25.6,141.2c-0.7,37.9-24.9,95.6-49.1,159.6l-31.7-2.3
		c24.2-64,43.4-112.2,50.9-149.3c6-29.6-6.6-46.8-26.7-149.2c-13.5-68.7-20.3-115.8-8.7-160c13.2-50.3,26.7-61.5,32.1-134.6
		c4.9-66.6,22.8-152.6,14.3-240c-3.3-33.8-58.3-91-85.5-157.3L1598.9,601.5z"/>
	<path class="st2" d="M1452.1,627.1c-0.7,71.7,12.9,130.1,2.7,162.5c-26.2,83.7-77.5,160.9-108.9,219.9
		c-34.3,64.5-35.7,73.4-63.9,119.1c-22.5,36.4-43.9,70.2-54.3,150.7c-12.3,94.7-18.7,111.3-31.5,140
		c-15.4,34.6-60.2,78.3-107.4,127.9l-28.3-14.5c47.2-49.6,83.7-86.4,105.1-117.7c17.1-24.9,12.1-45.7,33.6-147.8
		c14.4-68.5,26.5-114.6,54.3-150.7c31.7-41.2,48.6-46.2,82-111.5c30.5-59.4,80.5-131.7,106.8-215.4c10.2-32.4-18.2-106.5-17.4-178.2
		L1452.1,627.1z"/>
	<path class="st3" d="M630.9,1255.8c-66.9-44.4-337.6-224.1-287.3-428C374,704.9,516.1,593.1,625,605.1
		c43.4,4.8,65.5,27.4,123.1,23.5c73.4-5.1,101.1-46.3,152.4-64.5c114.9-40.8,307,47.7,334.2,158.3c32,130.5-187.2,204.6-193.5,428
		c-3.2,114.1,52.1,163.6,17.6,205.2C1000,1426.4,779.3,1354.3,630.9,1255.8z"/>
	<circle class="st4" cx="619.3" cy="877.4" r="175.4"/>
	<path class="st5" d="M578.5,750.6c25.2-23,73.8-8,101.1,8.9c30.2,18.7,64.5,58.3,53.5,89.2c-5.6,15.7-22.9,29.6-35.7,26.8
		c-14-3.1-11.9-23.9-35.7-50.6c-8.7-9.7-19.2-21.4-35.7-26.8c-29.2-9.4-49.8,9.9-59.5,0C558.1,789.5,563.7,764,578.5,750.6z"/>
</g>
</svg>
