<?xml version="1.0" encoding="utf-8"?>
<!-- Generator: Adobe Illustrator 22.1.0, SVG Export Plug-In . SVG Version: 6.00 Build 0)  -->
<svg version="1.1" id="Layer_1" xmlns="http://www.w3.org/2000/svg" xmlns:xlink="http://www.w3.org/1999/xlink" x="0px" y="0px"
	 viewBox="0 0 2160 2160" style="enable-background:new 0 0 2160 2160;" xml:space="preserve">
<style type="text/css">
	.st0{fill:#131911;}
	.st1{font-family:'Courier';}
	.st2{font-size:325.7317px;}
	.st3{fill:#C6D2FF;}
	.st4{fill:#E5D8CF;}
	.st5{fill:#E2CBB5;}
	.st6{fill:#FFFFFF;}
	.st7{fill:#02050C;}
	.st8{fill:none;stroke:#000000;stroke-width:2;stroke-miterlimit:10;}
</style>
<text transform="matrix(1 0 0 1 200.3815 1793.0859)" class="st0 st1 st2">chrisWong</text>
<g>
	<path class="st3" d="M1256.9,1497.7H877.4c-47.7,0-86.4-38.7-86.4-86.4v-379.5c0-47.7,38.7-86.4,86.4-86.4h379.5
		c47.7,0,86.4,38.7,86.4,86.4v379.5C1343.3,1459,1304.6,1497.7,1256.9,1497.7z"/>
	<circle class="st4" cx="1326" cy="536.2" r="71.3"/>
	<circle class="st4" cx="834" cy="536.2" r="71.3"/>
	<path class="st5" d="M1129.1,1009.8h-98.1c-13.3,0-24.1-10.8-24.1-24.1V707.6c0-13.3,10.8-24.1,24.1-24.1h98.1
		c13.3,0,24.1,10.8,24.1,24.1v278.1C1153.2,999,1142.3,1009.8,1129.1,1009.8z"/>
	<g id="XMLID_4_">
		<g>
			<path class="st5" d="M1327.6,447.8v202.8l-0.2,0c0.1,2.5,0.2,5,0.2,7.5c0,119.1-110.2,215.7-246,215.7V248.1
				c129.8,0,236.1,88.1,245.4,199.7L1327.6,447.8z"/>
			<path class="st4" d="M1081.6,248.1v625.8c-129.1,0-235-87.2-245.2-198.1l-0.8,0V442.5l1.2,0
				C848.9,333.4,953.9,248.1,1081.6,248.1z"/>
		</g>
		<g>
		</g>
	</g>
	<path class="st6" d="M1000,718.1c-0.3,5.2-0.5,23.2,19.5,39.4c4.7,3.8,27.5,22.2,65.1,21.8c30.4-0.4,56.6-12.9,68.3-29
		c10.6-14.6,6.7-28.3,4.9-33.1"/>
	<path class="st7" d="M884.1,558.1h-41.5c-4.8,0-8.6-3.9-8.6-8.6V437.8c0-4.8,3.9-8.6,8.6-8.6h41.5c4.8,0,8.6,3.9,8.6,8.6v111.7
		C892.7,554.2,888.8,558.1,884.1,558.1z"/>
	<rect x="855" y="493.6" class="st7" width="0" height="0"/>
	<rect x="803.9" y="526.5" class="st7" width="0" height="0"/>
	<path class="st7" d="M1320.7,549h-41.5c-4.8,0-8.6-3.9-8.6-8.6V428.7c0-4.8,3.9-8.6,8.6-8.6h41.5c4.8,0,8.6,3.9,8.6,8.6v111.7
		C1329.4,545.2,1325.5,549,1320.7,549z"/>
	<circle class="st7" cx="880" cy="447.7" r="49.7"/>
	<circle class="st7" cx="1277.4" cy="439.1" r="49.7"/>
	<path class="st7" d="M1204.2,206.4c2-4.3,5-10.8,8.3-18.7c7.5-17.8,16.4-38.8,13.4-40.6c-2.3-1.4-8.3,9.6-20.5,19.4
		c-19.6,15.6-42.3,17.9-60.5,19.4c-30.7,2.6-52.8-2.7-63.9-4.6c-89.6-14.8-179.7,78-183.7,82.1c-15.8,16.6-50.7,54.4-61.6,114.1
		c-4.9,26.9-3.5,49.9-1.3,65.4h493.1c-2.8-26.6-8.9-46.9-13.9-60.5c-6.1-16.5-7.8-15.8-26.5-56.1c-13.8-29.9-15.5-36.2-24-49.7
		c-10.6-16.9-21.8-29.1-29.7-36.9"/>
	<path class="st7" d="M1173,192.6c38.5,6.3,74.1-3.8,93.2-23c19.9-20,26.4-44.4,26.4-44.4c1.5-5.5,2.3-10.7,2.8-10.7
		c1.9,0.2,1.7,41.5-5.1,77.5c-4.8,25.5-16.6,68.1-50,115.2"/>
	<path class="st7" d="M1192.8,281.8c26.6-3.4,61.5-12.4,94.5-37.3"/>
	<path class="st7" d="M1228.1,260.7c32.3-8.1,73.8-24.7,98.5-62.3c15-22.8,19.7-47,22.7-46.3c5.7,1.3,3.8,58-13.5,112.9
		c-15,47.6-38.1,83.3-56.4,107"/>
	<g>
		<path class="st8" d="M1106.9,520.7h150.7c5.4,0,9.5,5.1,9,11l-6.1,65.1c-0.5,5.1-4.4,9-9,9h-125.8c-4.1,0-7.7-3.1-8.8-7.5
			l-15.1-65.1c-1.5-6.3,2.9-12.5,8.8-12.5h149"/>
		<path class="st8" d="M1056.3,520.7H905.7c-5.4,0-9.5,5.1-9,11l6.1,65.1c0.5,5.1,4.4,9,9,9h125.8c4.1,0,7.7-3.1,8.8-7.5l15.1-65.1
			c1.5-6.3-2.9-12.5-8.8-12.5h-149"/>
		<path class="st8" d="M1057,552.2c4.4-3.6,11.3-8.2,20.4-9.8c3.8-0.7,6.5-0.6,7.2-0.5c9,0.4,16.5,5,22,9.8"/>
	</g>
</g>
</svg>
