<?xml version="1.0" encoding="utf-8"?>
<!-- Generator: Adobe Illustrator 22.1.0, SVG Export Plug-In . SVG Version: 6.00 Build 0)  -->
<svg version="1.1" id="Layer_1" xmlns="http://www.w3.org/2000/svg" xmlns:xlink="http://www.w3.org/1999/xlink" x="0px" y="0px"
	 viewBox="0 0 2160 2160" style="enable-background:new 0 0 2160 2160;" xml:space="preserve">
<style type="text/css">
	.st0{fill:#131911;}
	.st1{fill:#BAD868;stroke:#ECECEC;stroke-miterlimit:10;}
	.st2{fill:#69965A;}
	.st3{fill:none;}
</style>
<circle class="st0" cx="1118.8" cy="1033.8" r="698.2"/>
<g>
	<path class="st1" d="M1179,1644.9c-38.4,24-100.5-1.7-131.4-23.6c-48.8-34.5-61.8-88.8-77.5-154.6c-5-20.8-26.5-116.1-7.1-250.7
		c11.5-79.7,23.6-78.3,26.9-141.2c4.5-88-15.7-157.9-26.5-189.7c-33.6-98.8-88.2-157-83.1-160.8c4.7-3.5,50.2,43.6,93.7,103.4
		c71.3,98,105.9,187.3,116.2,214.4C1122.9,1128.8,1291.6,1574.8,1179,1644.9z"/>
	<path class="st2" d="M1064.2,1553.8c-6.7-0.1-16.3-5.5-25.9-87.7c-8.9-76.3-14-119.6-5.5-184.9c8.1-62.3,18.3-64.9,21.3-120.8
		c1-17.6,2.3-60-7.4-112.5c-6.2-33.3-15.8-60.3-34.7-113c-25.7-71.3-43.5-109.9-42.8-110.2c1.3-0.5,64.8,138.3,125.7,309.8
		c0,0,22.6,63.8,40.6,156c15.5,79.5,16.3,123.4-3.2,172.9C1116.6,1503.2,1084.8,1554,1064.2,1553.8z"/>
	<rect x="543.8" y="1449.2" class="st3" width="0" height="12.2"/>
	<path class="st1" d="M1149.1,1650.8c-52.6-5.2-88.1-139-60.9-257.2c19.6-85.3,61.6-118,108.3-194.8
		c136.6-224.7,75.1-434.2,94.7-434.5c17-0.3,35.5,156.9,44,277.2c18.5,263.1-11.3,353.4-23.7,387.1
		C1279.5,1515.7,1205.3,1656.4,1149.1,1650.8z"/>
	<path class="st2" d="M1153.7,1590.5c-6.3-2.2-13.6-10.6,4.3-91.4c16.6-75,26-117.6,55.5-176.4c28.2-56.2,38.6-55.3,59.8-107.1
		c6.7-16.3,21.8-55.9,29.9-108.7c5.1-33.5,4.9-62.2,4.3-118.1c-0.9-75.8-5-118.1-4.3-118.1c1.4-0.1,15.9,151.9,17.1,333.9
		c0,0,0.4,67.7-12.8,160.7c-11.4,80.2-25,121.9-59.8,162.2C1219.7,1559.8,1173.1,1597.4,1153.7,1590.5z"/>
	<path class="st1" d="M1209.8,1627.8c5.7-69-176-95.9-318.1-187.3c-248.1-159.6-235.9-426.2-263.9-422
		c-24.8,3.7,14.3,204.4,30.5,287.2c34.8,178.8,60.9,229.8,101.5,277.2c32.3,37.7,98.8,112.9,216.6,132.4
		c25.4,4.2,98.2,16.2,162.4-15C1146.5,1696.4,1206.7,1666.4,1209.8,1627.8z"/>
	<path class="st2" d="M1078.4,1697.3c-177.8-10.8-253.4-71-276.7-92.1c-35.1-32-51.3-74.1-83.6-158.3c-6.5-16.9-21.7-73.1-52-185.6
		c-9.4-34.8-16.5-61.6-12.4-62.5c8.6-1.8,34,113.8,144.8,226.8c59.7,61,89.6,91.4,148,113.4c53.9,20.3,110.2,25.6,141.6,63.8
		c16.2,19.8,19.2,40.4,19.3,54.3"/>
	<path class="st1" d="M1111.4,1656.9c40.1-11,28.9-88.8,28-94.6c-12.6-81.7-89.1-119.3-141.6-169.3
		c-146.8-139.9-42.5-316.7-73.3-317.1c-29-0.4-134.7,156.2-86.5,318.8C883,1546.2,1052.8,1673,1111.4,1656.9z"/>
	<path class="st2" d="M1039,1588.2c22.5-4.8,40-23.5,38.3-45.2c-2.5-31.6-43.5-44.4-98.3-99.1c-11.6-11.5-82-83.3-100.4-171.5
		c-1.7-8.1-5.2-27.1-4.6-50.7c1.4-59.1,26.9-97.1,28-96.6c1.5,0.7-43.4,64.5-43.8,166.1c-0.1,34.1,5.1,60.4,15.6,113.2
		c19.5,97.8,39,120.5,48.8,130.5C948.2,1561.3,999.5,1596.7,1039,1588.2z"/>
	<path class="st1" d="M1061.6,1643.6c-29.2-62.8,132-150.8,233.8-285.6c177.8-235.5,74.2-481.4,101.9-487.2
		c24.5-5.1,57.1,196.8,70.6,280c29.1,179.8,22.2,236.7,0.5,295.2c-17.3,46.5-53.8,140.1-157.5,199c-22.4,12.7-86.5,49.2-157.6,42
		C1144.7,1686.2,1077.9,1678.8,1061.6,1643.6z"/>
	<path class="st2" d="M1208.9,1663.5c163.1-71.5,213.3-154.1,227.8-182c21.9-42.2,22.6-87.3,23.8-177.5
		c0.3-18.1-4.9-76.1-15.3-192.1c-3.2-35.9-5.8-63.6-10-62.9c-8.7,1.3,7.4,118.5-57.5,262.9c-35,77.8-52.5,116.7-99.7,157.5
		c-43.6,37.6-94.6,62.1-110.8,108.8c-8.4,24.1-4.1,44.5,0.7,57.7"/>
	<path class="st1" d="M1149.8,1707.2c-31.9-26.6,10.7-92.8,13.9-97.6c45.5-69.1,130.6-71.4,199.2-95.1
		c191.7-66.1,170.4-270.3,198.6-257.8c26.5,11.7,57.5,198.1-54,325.8C1403.5,1701.6,1196.4,1746.2,1149.8,1707.2z"/>
	<path class="st2" d="M1244.2,1674.9c-18.4-13.7-26.6-38-16-57.1c15.4-27.7,58-22.2,130.7-49.2c15.3-5.7,109.3-41.6,162.7-114.1
		c4.9-6.7,16-22.5,25.3-44.2c23.3-54.3,16-99.5,14.7-99.5c-1.7,0,12.7,76.7-29.3,169.2c-14.1,31-29.8,52.8-61.3,96.4
		c-58.4,80.8-85.6,93.3-98.7,98.4C1338,1688.2,1276.6,1699,1244.2,1674.9z"/>
</g>
</svg>
