<?xml version="1.0" encoding="utf-8"?>
<!-- Generator: Adobe Illustrator 22.1.0, SVG Export Plug-In . SVG Version: 6.00 Build 0)  -->
<svg version="1.1" id="Layer_1" xmlns="http://www.w3.org/2000/svg" xmlns:xlink="http://www.w3.org/1999/xlink" x="0px" y="0px"
	 viewBox="0 0 2160 2160" style="enable-background:new 0 0 2160 2160;" xml:space="preserve">
<style type="text/css">
	.st0{fill:#E2EDD8;}
	.st1{fill:#8EC665;}
	.st2{fill:none;stroke:#8EC665;stroke-miterlimit:10;}
	.st3{fill:#C3E89C;}
	.st4{fill:#3A442E;}
</style>
<g>
	<g>
		<g>
			<path class="st0" d="M380.7,475.6h355.2c7.5,0,13.7-6.2,13.7-13.7c0-7.5-6.2-13.7-13.7-13.7H380.7c-7.5,0-13.7,6.2-13.7,13.7
				C367,469.5,373.2,475.6,380.7,475.6z"/>
			<path class="st0" d="M741.6,1313.1c3-4.2,28.6-39.8,28.6-39.8l-4.9-755.6l-30.3-42.1H385.6l-30.3,42.1l4.9,755.6l28.5,39.6h-3.6
				c-7.5,0-13.7,6.2-13.7,13.7c0,7.5,6.2,13.7,13.7,13.7h355.2c7.5,0,13.7-6.2,13.7-13.7C754.1,1319.6,748.5,1313.8,741.6,1313.1z"
				/>
		</g>
		<polyline class="st1" points="654.9,823.3 501.6,1187.3 531.7,958.4 461.7,992.7 615,628.7 584.6,857.5 584.7,857.3 654.8,823 		
			"/>
	</g>
	<path class="st0" d="M639,414.5L422.9,518.2c-0.6,0.3-0.9,1-0.6,1.6l5.7,11.8c0.3,0.6,1,0.9,1.6,0.6l216.1-103.7
		c0.6-0.3,0.9-1,0.6-1.6l-5.7-11.8C640.4,414.5,639.6,414.2,639,414.5z"/>
	<path class="st2" d="M717.2,475.6"/>
	<path class="st2" d="M794.2,1308.6"/>
	<path class="st2" d="M432.3,1308.6"/>
</g>
<path class="st3" d="M1024.9,1198.2c-133.4,93.8-153.7,102.8-169.5,138.9c-44.1,100.8,18.2,252.3,119.1,281.7
	c120.1,35,213.9-126.4,384.8-95.2c69.8,12.7,61.9,41,164.9,75.4c88.6,29.5,276.2,69.2,343.6-4c53.8-58.4,9.1-164.9,0-186.5
	c-32-76.3-74.6-76.4-91.6-142.8c-21.3-82.9,33.8-126.2,0-166.6c-24.7-29.4-69.5-25-155.8-31.7c-216.4-17-218.8-67.4-316.1-51.6
	C1250.2,1024.5,1249.3,1040.4,1024.9,1198.2z"/>
<g>
	<g>
		<g>
			<path class="st4" d="M1462.6,956l5.1,355.2c0.1,7.5,6.4,13.6,13.9,13.5c7.5-0.1,13.6-6.4,13.5-13.9l-5.1-355.2
				c-0.1-7.5-6.4-13.6-13.9-13.5C1468.6,942.2,1462.5,948.4,1462.6,956z"/>
			<path class="st4" d="M630.3,1328.8c4.3,3,40.2,28,40.2,28l755.4-15.8l41.7-30.9l-5-349.3l-42.6-29.7l-755.4,15.8L625.4,976
				l-0.1-3.6c-0.1-7.5-6.4-13.6-13.9-13.5c-7.5,0.1-13.6,6.4-13.5,13.9L603,1328c0.1,7.5,6.4,13.6,13.9,13.5
				C624.1,1341.4,629.8,1335.8,630.3,1328.8z"/>
		</g>
		<polyline class="st1" points="1118.8,1235.2 752.7,1087.1 982,1113.9 946.7,1044.3 1312.9,1192.4 1083.7,1165.3 1083.9,1165.4 
			1119.2,1235 		"/>
	</g>
	<path class="st4" d="M1527.4,1213.4l-106.8-214.6c-0.3-0.6-1-0.9-1.6-0.6l-11.7,5.8c-0.6,0.3-0.9,1-0.6,1.6l106.8,214.6
		c0.3,0.6,1,0.9,1.6,0.6l11.7-5.8C1527.5,1214.7,1527.7,1214,1527.4,1213.4z"/>
	<path class="st2" d="M1467.4,1292.4"/>
	<path class="st2" d="M1462.2,930.6"/>
	<path class="st2" d="M635.6,1381.4"/>
	<path class="st2" d="M630.5,1019.6"/>
</g>
<path id="defico2_1_" class="st1" d="M1322.9,1663.2"/>
<path id="defico_2_" class="st1" d="M1182.9,81.6"/>
<path id="defico_1_" class="st1" d="M642.6,81.6"/>
<path id="defico" class="st1" d="M651.4,482.8H382c-2,0-3.6-1.6-3.6-3.6l0,0c0-2,1.6-3.6,3.6-3.6h269.4c2,0,3.6,1.6,3.6,3.6l0,0
	C654.9,481.2,653.3,482.8,651.4,482.8z"/>
<path id="defico_3_" class="st1" d="M596.4,1315.7H465.2c-2,0-3.6-1.6-3.6-3.6l0,0c0-2,1.6-3.6,3.6-3.6h131.1c2,0,3.6,1.6,3.6,3.6
	l0,0C599.9,1314.1,598.3,1315.7,596.4,1315.7z"/>
<path id="defico_4_" class="st1" d="M1455.5,1228V958.6c0-2,1.6-3.6,3.6-3.6l0,0c2,0,3.6,1.6,3.6,3.6V1228c0,2-1.6,3.6-3.6,3.6l0,0
	C1457.1,1231.6,1455.5,1230,1455.5,1228z"/>
<path id="defico_5_" class="st1" d="M630.5,1328.3v-269.4c0-2,1.6-3.6,3.6-3.6l0,0c2,0,3.6,1.6,3.6,3.6v269.4c0,2-1.6,3.6-3.6,3.6
	l0,0C632.1,1331.9,630.5,1330.3,630.5,1328.3z"/>
</svg>
