<?xml version="1.0" encoding="utf-8"?>
<!-- Generator: Adobe Illustrator 22.1.0, SVG Export Plug-In . SVG Version: 6.00 Build 0)  -->
<svg version="1.1" id="Layer_1" xmlns="http://www.w3.org/2000/svg" xmlns:xlink="http://www.w3.org/1999/xlink" x="0px" y="0px"
	 viewBox="0 0 2160 2160" style="enable-background:new 0 0 2160 2160;" xml:space="preserve">
<style type="text/css">
	.st0{fill:#7D3C22;}
	.st1{fill:#B25D35;}
	.st2{fill:#542309;}
	.st3{fill:#FFFFFF;}
	.st4{fill:#7E7F7C;}
	.st5{opacity:0.4;fill:#FFFFFF;}
</style>
<g>
	<g>
		<path class="st0" d="M1156.6,840.7c-13.1,6.2-26.7-7.6-59.1-22c0,0-20.4-9.1-69.3-20.4c-95.3-22-223.4,65-241.8,77.5
			C738,908.6,703,932.4,678.1,980.4c-33.6,64.8-25.3,128.4-20.2,167.3c4.6,35.3,13.9,106.2,68.9,164c29.5,31.1,60.5,46.1,91.2,61
			c14.6,7.1,52.3,24.3,138.6,40.7c15.1,2.9,72,13.4,174.1,20.5c107.8,7.5,114,0.5,175.8,10.3c28.5,4.5,82.5,13.4,147,39
			c32.3,12.8,33.7,16.5,138.5,71.1c95.4,49.7,110.4,55.1,130.1,59.1c27.5,5.6,80.4,16.4,135.2-8.1c66-29.5,93.2-91.6,104.9-118.2
			c45.9-104.6,8.8-203.9,1.9-221.4c-27.9-70.8-78.6-115.8-106.3-140.4c-62.2-55.3-103.4-60.6-136.8-120.2c-13.1-23.4-7-23-30.3-87.9
			c-30.6-85.3-46-127.9-69.1-147.1c-66.3-54.9-181.6-26.2-201.1-21.4c-33.9,8.5-42.2,17.2-84.5,24.4c-52.3,8.9-78.4,13.3-109.9,11.7
			c-17.4-0.9-29.3-2.9-40.6,5C1164.8,804.4,1173.1,832.9,1156.6,840.7z"/>
		<path class="st1" d="M1016.6,808.4C936.2,774.8,833.8,853,776.1,897c-41.6,31.7-57.8,54-70.3,95.6
			c-20.2,66.9,5.2,128.2,12.9,140.1c33.8,52.3,85.1,71.4,146.1,94.1c12.1,4.5,59.6,21.6,129.4,29.2c84.3,9.1,101.8-6.5,186.6-3.2
			c70.2,2.7,121.3,15.9,186.6,32.7c93.2,24,161.9,53.4,188.2,65.1c61.5,27.4,99.1,44.2,147.8,75.3c27.8,17.8,49.2,33.8,87.4,47.9
			c36,13.3,68.3,24.7,104.2,12.1c38.8-13.7,58.3-47.1,63.9-58c18.6-35.7,14.3-70.1,11.9-87.1c-8.3-58.7-43.7-97.5-83.9-140.2
			c-47.1-50.1-59.9-46.1-131-116.3c-60.6-59.9-68.6-79.8-72.2-90.6c-12.1-36.8-2.5-57.1-20-111.1c-7.5-23.1-14.2-43.6-28.5-61.5
			c-36.3-45.3-63.4-71.1-108.7-72.9c-112-4.4-204.2,53.7-264.4,50c-6.1-0.4-49.8-3.9-60.8,6.5c-8.4,7.9-7.7,3-15.9,24.3
			c-7,18,16.4,57.4,7.7,63.3c-16.2,11.1-42.6-0.8-67.2-13.7C1054.1,841,1046.6,821,1016.6,808.4z"/>
		
			<ellipse transform="matrix(7.589880e-02 -0.9971 0.9971 7.589880e-02 271.1949 3118.3315)" class="st2" cx="1818" cy="1412.9" rx="10.1" ry="141.1"/>
		
			<ellipse transform="matrix(7.589880e-02 -0.9971 0.9971 7.589880e-02 267.1649 2953.0715)" class="st2" cx="1726.8" cy="1332.4" rx="10.1" ry="244"/>
		
			<ellipse transform="matrix(7.589880e-02 -0.9971 0.9971 7.589880e-02 30.5209 2500.574)" class="st2" cx="1364.3" cy="1233.8" rx="11.9" ry="580.1"/>
		
			<ellipse transform="matrix(7.589880e-02 -0.9971 0.9971 7.589880e-02 63.0209 2353.0996)" class="st2" cx="1301" cy="1142.5" rx="11.9" ry="580.1"/>
		
			<ellipse transform="matrix(7.589880e-02 -0.9971 0.9971 7.589880e-02 94.7822 2206.1042)" class="st2" cx="1237.6" cy="1051.9" rx="9.4" ry="526.1"/>
		
			<ellipse transform="matrix(7.589880e-02 -0.9971 0.9971 7.589880e-02 151.9336 2107.3613)" class="st2" cx="1212.9" cy="971.7" rx="7.5" ry="474.1"/>
		
			<ellipse transform="matrix(7.589880e-02 -0.9971 0.9971 7.589880e-02 255.7191 2076.2957)" class="st2" cx="1248" cy="900.2" rx="6" ry="426.7"/>
		
			<ellipse transform="matrix(7.589880e-02 -0.9971 0.9971 7.589880e-02 460.5404 2209.5676)" class="st2" cx="1422.3" cy="856.3" rx="7.4" ry="232.1"/>
		<path class="st3" d="M778,919.2c-0.8-3,19.3-10.5,57.9-25.8c47-18.6,95-34.4,141.6-54c19.9-8.4,39.3-17,64-13.5
			c4.9,0.7,16,5,38.1,13.6c22.4,8.7,46.3,13.7,67.7,24.7c4,2.1,13.6,7.2,24.6,5c2.9-0.6,8.4-1.7,12.3-6.1c6.2-6.9,1.6-13.8,7.4-27.1
			c1.7-3.9,3.8-8.8,8.6-12.3c8-5.8,18.3-4,20.9-3.7c6.5,0.9,37.1-6.3,98.5-20.8c17.6-4.2,85.7-20.4,112.5-21.8
			c3.1-0.2,12.6-0.5,24.2-0.2c12.2,0.3,18.4,0.4,18.5,1.3c0.4,2.9-50.9,7-109.6,30.6c-12.5,5-28.9,12.4-45.6,27
			c-12.6,11.1-25,22-28.4,40.6c-4.2,23.3,9.1,41.8,11,44.3c7.9,10.7,16.9,14.6,28.3,21c20,11.2,36.9,27.2,55.3,40.7
			c40.6,29.7,61.5,47.1,123,93.7c72.9,55.2,84.4,61.7,118.1,91.2c8,7,75.2,65.9,70.1,72.7c-1.2,1.6-7.8,1.7-72.6-37
			c-63.3-37.8-111.3-70.3-143.9-92.5c-88.6-60.3-135.3-92.5-135.3-92.5c-49.7-34.2-65.2-45.1-93.5-60.4
			c-43-23.3-80.1-37.6-105.2-46.1c-15.9-5.4-31.9-10.9-53.5-15.6c-48.3-10.7-89.2-10.1-112-8.7c-41.7,2.6-48.4,9.6-161.3,28.1
			C797.9,919.1,778.8,922,778,919.2z"/>
	</g>
	<path class="st4" d="M727.4,452.4c2,21.1-5.1,35.7-11.3,50.2c-38.6,90.8-77.2,181.7-116.5,272.2C516,967.1,454.7,1167.6,382.4,1364
		c-13.3,36.3-35.9,53.9-59.1,44.7c-24.2-9.5-29.2-42.5-12-75.9c61.6-119.6,119.3-241.2,175.6-363.4c10.7-23.3,7.3-42.8-6.4-61.4
		c-20.7-28-19.3-55.5-6.3-86.6c42.7-101.9,81.5-205.8,153.4-292.2C654.4,497.1,684.4,468.7,727.4,452.4z"/>
	<g>
		<path class="st4" d="M335.5,504.9c16.4,58.9,32.8,117.8,49.3,176.7c2,7.3,3.8,14.6,6.3,21.8c2.4,6.9,7.3,11.7,15,8.8
			c6.3-2.4,6.4-8.5,5-14.4c-5-21.1-10.1-42.3-15.1-63.4c-10.8-45.4-21.7-90.8-30.5-136.7c17.1,31.7,25.3,66.3,35.8,100.1
			c15.7,50.5,30.1,101.3,45.8,151.8c7.3,23.4,3.5,43.1-16.2,58c-19.8,15-19.3,33.7-15.1,55.7c28.4,148.8,77,292,119.4,436.9
			c9.8,33.5,20.7,66.7,30.8,100.1c8.7,28.9-2.7,56.2-24.7,60.9c-20.8,4.4-42.1-13.3-47.6-42.3c-18.3-96.5-35.7-193.1-53.5-289.6
			c-16.6-90-31.6-180.4-59.5-268c-5.5-17.3-13.8-28-31.6-31.5c-26.2-5.2-39.5-21.4-44.8-47.8c-17-85.8-31.9-172-39.3-259.7
			c12.5,52.4,25,104.7,37.6,157.1c3.1,12.9,6.1,25.7,9.2,38.6c1.8,7.6,4.2,15.9,14.3,13.3c9.9-2.6,8-11.1,6.5-18.7
			c-9.9-50-19.8-100-29.9-150c-3.2-15.6-7.3-31-5.5-48.2c7.8,26.2,16,52.2,23.2,78.5c9.5,34.6,17.9,69.5,27.6,104.1
			c2.7,9.8,0.7,27.7,16.5,24.5c16.7-3.4,6.7-18.8,4.5-28.3c-14.1-61.5-29.1-122.8-43.7-184.2C328.4,507.5,332,506.2,335.5,504.9z"/>
		<path class="st5" d="M366.9,822c-15.6,2.2-35.3-14.3-44.9-26.5c-10.6-13.5-19.5-35.1-9-43.3c5.3-4.1,15.7-4.9,21.1-1
			c5.9,4.3,1.3,11,7.6,25.8c2.3,5.4,5.1,11.9,11.7,17.5c11.8,10,24.6,8.1,27.3,13.8C383.1,813.2,376.1,820.7,366.9,822z"/>
	</g>
</g>
</svg>
