<?xml version="1.0" encoding="utf-8"?>
<!-- Generator: Adobe Illustrator 22.1.0, SVG Export Plug-In . SVG Version: 6.00 Build 0)  -->
<svg version="1.1" id="Layer_1" xmlns="http://www.w3.org/2000/svg" xmlns:xlink="http://www.w3.org/1999/xlink" x="0px" y="0px"
	 viewBox="0 0 2160 2160" style="enable-background:new 0 0 2160 2160;" xml:space="preserve">
<style type="text/css">
	.st0{fill:#363636;}
	.st1{fill:#FFFFFF;}
	.st2{fill:#8C7865;}
	.st3{font-family:'Jakob-Regular';}
	.st4{font-size:124.0697px;}
	.st5{font-size:140.5759px;}
	.st6{font-size:190.9586px;}
	.st7{fill:none;stroke:#CE3F28;stroke-width:36;stroke-miterlimit:10;}
</style>
<g id="S0yNbD_1_">
	<g>
		<g>
			<path class="st0" d="M1065.4,745.6c118.5,0,237-0.2,355.5,0.1c52.8,0.1,75.2,22.6,75.4,74.7c0.2,81.3,0.8,162.6-0.5,243.9
				c-0.4,28.1,6.2,43.2,34.5,58.5c118.6,64.2,170.8,179.2,144.8,312.7c-5,25.8-22.2,53.3-50,59.5c-22.3,5-23.5,14.3-25.1,32.4
				c-2,24.1-12.7,45.3-42,44.1c-28.7-1.1-42.3-18-38.5-46.6c2.9-22.5-6.7-27.5-27.8-27.4c-283.9,0.6-567.7,0.6-851.6,0
				c-22.2,0-33.4,4.3-30.3,29.1c3.7,29.3-11.8,45.1-40.1,44.8c-28.7-0.3-42-18.4-40.8-46.1c0.8-17.4-2.9-24.7-22.7-29.8
				c-29.1-7.5-47.9-33.9-52.2-62c-22.7-146.8,24.2-242.4,154.4-316.8c20-11.4,25.5-24,25.2-45.6c-1.2-84-0.8-168.1-0.5-252.2
				c0.2-51,21.5-72.8,72.8-73C825.6,745.3,945.5,745.6,1065.4,745.6z M498.4,1397.1c60-72.6,136.5-69.9,212.6-72.8
				c39.2-1.5,74.9,17.8,112.7,14.9c32.5-2.5,64.7-7.1,97.5-4c82.5,7.9,165.4,9.6,247.6,2.2c52.2-4.7,104.9,14.9,154.6,0.3
				c50.3-14.7,100.2-11.4,150.4-13.2c51.6-1.9,96.7,17.6,136.1,50.3c7,5.8,11.2,16.7,22.8,11.2c12.6-103.4-34.8-175-120.4-225.3
				c-22.4-13.2-46-24.7-70.2-34.3c-151.8-60.3-310.3-69.1-470.9-59.2c-128.8,8-254,30.8-365.7,100.8
				C525.2,1218.2,484.2,1289,498.4,1397.1z M1442.6,1080c3.6,0,7.3-0.1,10.9-0.1c0-84.6-1-169.2,0.6-253.8c0.5-29-9.1-38.2-38-38.1
				c-234.3,0.9-468.5,0.9-702.8,0c-28.6-0.1-38.8,8.6-38.2,37.9c1.6,78.5,0.2,157.1,0.7,235.6c0,6.1-5.7,17.1,11.4,18.5
				c1.4-13.2,2.4-26.3,4.3-39.3C703.1,962,731.9,937,810.7,937c56.5,0,113,0.6,169.5-0.2c28.8-0.4,51.6,9.9,77.3,23
				c22.8,11.6,45-26.8,78.6-24.3c68.5,5.2,137.7,3,206.6,1c41-1.2,62.2,21.1,79,53.1C1436.5,1017.7,1437.7,1049.3,1442.6,1080z
				 M1064.2,1455c172.2,0,344.5,0.1,516.7-0.3c9.8,0,23.8,6.8,28.8-7.4c4.3-12.3-6.9-19.9-14.5-27.5c-38-38.3-84.1-55.9-138-53.3
				c-116.9,5.7-233.8,13.3-350.8,16.6c-144.7,4.1-288.9-11.8-433.5-16.7c-52.3-1.8-97.6,13.7-135.3,49.9c-8.6,8.2-22.4,16.1-18,30.1
				c5.1,16.1,21.1,8.2,32,8.3C722.4,1455.1,893.3,1455,1064.2,1455z M1240.2,979.9c-35.7,0-71.3,0.7-107-0.3
				c-20.1-0.6-32.7,7.4-33.7,27c-1.3,24.4,19.7,14,30.2,14.9c72.9,5.9,145.1,15.9,217,29.4c15.8,3,37.6,20.7,47.3,3.3
				c8.2-14.7-6.2-36.2-14.6-53.6c-7.5-15.5-19.3-21.3-36.4-20.9C1308.8,980.5,1274.5,979.9,1240.2,979.9z M890.9,979.9
				c-28.8,0-58.1,3.1-86.4-0.7c-46.5-6.2-59.3,22.7-69.1,58c-6,21.8,1.2,26.5,22,21c79.9-21.3,161.4-32.5,243.9-36.8
				c9.9-0.5,28.4,7.7,28.5-12.6c0-18.9-10.7-29.6-31.7-29C962.4,980.6,926.6,979.9,890.9,979.9z"/>
			<path class="st1" d="M498.4,1397.1c-14.2-108.1,26.8-178.9,107-229.1c111.7-69.9,236.9-92.8,365.7-100.8
				c160.6-9.9,319.1-1.1,470.9,59.2c24.1,9.6,47.8,21.2,70.2,34.3c85.6,50.3,133,121.8,120.4,225.3c-11.6,5.5-15.8-5.4-22.8-11.2
				c-39.5-32.7-84.5-52.2-136.1-50.3c-50.2,1.8-100.1-1.5-150.4,13.2c-49.7,14.6-102.3-5.1-154.6-0.3c-82.2,7.4-165.1,5.8-247.6-2.2
				c-32.8-3.2-64.9,1.5-97.5,4c-37.7,2.9-73.5-16.4-112.7-14.9C635,1327.2,558.4,1324.5,498.4,1397.1z"/>
			<path class="st2" d="M1442.6,1080c-4.9-30.7-6-62.3-20.8-90.4c-16.8-32.1-38.1-54.4-79-53.1c-68.8,2.1-138.1,4.2-206.6-1
				c-33.6-2.5-55.8,35.9-78.6,24.3c-25.8-13.1-48.5-23.4-77.3-23c-56.5,0.8-113,0.2-169.5,0.2c-78.8,0-107.7,25-119.3,103.7
				c-1.9,13-2.9,26.1-4.3,39.3c-17.1-1.4-11.3-12.4-11.4-18.5c-0.4-78.5,0.9-157.1-0.7-235.6c-0.6-29.3,9.6-38,38.2-37.9
				c234.3,0.9,468.5,0.9,702.8,0c28.8-0.1,38.5,9.1,38,38.1c-1.6,84.6-0.6,169.2-0.6,253.8C1449.9,1079.9,1446.2,1079.9,1442.6,1080
				z"/>
			<path class="st2" d="M1064.2,1455c-170.9,0-341.7,0.2-512.6-0.4c-10.8,0-26.9,7.8-32-8.3c-4.4-13.9,9.4-21.8,18-30.1
				c37.8-36.2,83-51.7,135.3-49.9c144.5,5,288.7,20.8,433.5,16.7c117-3.3,233.9-10.9,350.8-16.6c53.9-2.6,100,14.9,138,53.3
				c7.6,7.6,18.8,15.2,14.5,27.5c-5,14.2-19.1,7.4-28.8,7.4C1408.6,1455.1,1236.4,1455,1064.2,1455z"/>
			<path class="st1" d="M1240.2,979.9c34.3,0,68.6,0.6,102.9-0.2c17.1-0.4,28.9,5.5,36.4,20.9c8.4,17.4,22.8,38.9,14.6,53.6
				c-9.7,17.4-31.5-0.3-47.3-3.3c-71.9-13.6-144.1-23.6-217-29.4c-10.5-0.8-31.5,9.5-30.2-14.9c1.1-19.6,13.6-27.6,33.7-27
				C1168.9,980.7,1204.5,979.9,1240.2,979.9z"/>
			<path class="st1" d="M890.9,979.9c35.7,0,71.4,0.7,107.1-0.2c21-0.5,31.8,10.2,31.7,29c-0.1,20.3-18.5,12.1-28.5,12.6
				c-82.6,4.4-164,15.5-243.9,36.8c-20.8,5.6-28,0.8-22-21c9.8-35.3,22.5-64.2,69.1-58C832.8,983,862.1,979.9,890.9,979.9z"/>
		</g>
	</g>
</g>
<text transform="matrix(1 0 0 1 1064.4791 671.8397)" class="st0 st3 st4">Z</text>
<text transform="matrix(0.987 0 0 1 962.6979 602.5609)" class="st0 st3 st5">Z</text>
<text transform="matrix(0.987 0 0 1 1079.5016 497.0341)" class="st0 st3 st6">Z</text>
<circle class="st7" cx="1079.5" cy="1080" r="871.2"/>
<path class="st7" d="M325.9,1517.4L1734,515.7L325.9,1517.4z"/>
</svg>
