<?xml version="1.0" encoding="utf-8"?>
<!-- Generator: Adobe Illustrator 22.1.0, SVG Export Plug-In . SVG Version: 6.00 Build 0)  -->
<svg version="1.1" id="Layer_1" xmlns="http://www.w3.org/2000/svg" xmlns:xlink="http://www.w3.org/1999/xlink" x="0px" y="0px"
	 viewBox="0 0 2160 2160" style="enable-background:new 0 0 2160 2160;" xml:space="preserve">
<style type="text/css">
	.st0{fill:none;stroke:#8EC665;stroke-miterlimit:10;}
	.st1{fill:#3A442E;}
	.st2{fill:#8EC665;}
	.st3{fill:#C3E89C;}
	.st4{fill:#E2EDD8;}
</style>
<line class="st0" x1="480.5" y1="561.8" x2="792.5" y2="561.8"/>
<g>
	<g>
		<g>
			<path class="st1" d="M427.3,488.8h306.3c6.5,0,11.8-5.3,11.8-11.8c0-6.5-5.3-11.8-11.8-11.8H427.3c-6.5,0-11.8,5.3-11.8,11.8
				C415.5,483.5,420.8,488.8,427.3,488.8z"/>
			<path class="st1" d="M738.5,1210.9c2.6-3.6,24.6-34.3,24.6-34.3l-4.2-651.5l-26.1-36.3H431.6l-26.1,36.3l4.2,651.5l24.6,34.2
				h-3.1c-6.5,0-11.8,5.3-11.8,11.8c0,6.5,5.3,11.8,11.8,11.8h306.3c6.5,0,11.8-5.3,11.8-11.8
				C749.2,1216.4,744.5,1211.4,738.5,1210.9z"/>
		</g>
		<polyline class="st2" points="663.8,788.6 531.6,1102.4 557.5,905 497.2,934.6 629.4,620.8 603.2,818 603.2,817.8 663.6,788.2 		
			"/>
	</g>
	<path class="st1" d="M649.9,436.1l-186,89.2c-0.6,0.3-0.9,1-0.6,1.6l4.7,9.9c0.3,0.6,1,0.9,1.6,0.6l186-89.2c0.6-0.3,0.9-1,0.6-1.6
		l-4.7-9.9C651.3,436.1,650.5,435.8,649.9,436.1z"/>
</g>
<path class="st3" d="M876,1199.3c-115,80.9-132.5,88.6-146.1,119.7c-38,86.9,15.7,217.5,102.7,242.9
	c103.5,30.2,184.4-109,331.8-82.1c60.1,11,53.4,35.4,142.2,65c76.4,25.5,238.1,59.7,296.2-3.4c46.4-50.4,7.8-142.2,0-160.8
	c-27.6-65.8-64.3-65.8-79-123.1c-18.4-71.5,29.2-108.8,0-143.7c-21.3-25.4-59.9-21.5-134.3-27.4c-186.6-14.6-188.6-58.1-272.5-44.5
	C1070.3,1049.6,1069.5,1063.2,876,1199.3z"/>
<g>
	<g>
		<g>
			<path class="st4" d="M571,656.1l217.8-215.3c4.6-4.6,4.7-12.1,0.1-16.7c-4.6-4.6-12.1-4.7-16.7-0.1L554.3,639.3
				c-4.6,4.6-4.7,12.1-0.1,16.7C558.8,660.6,566.3,660.7,571,656.1z"/>
			<path class="st4" d="M1299.8,951c-0.7-4.4-6.6-41.7-6.6-41.7L832.3,448.9l-44.1-7.5L574,653.1l7,44.2l460.9,460.4l41.5,7
				l-2.2,2.2c-4.6,4.6-4.7,12.1-0.1,16.7c4.6,4.6,12.1,4.7,16.7,0.1l217.8-215.3c4.6-4.6,4.7-12.1,0.1-16.7
				C1311.4,947.4,1304.5,947.2,1299.8,951z"/>
		</g>
		<polyline class="st2" points="949.9,703.1 1076.4,1019.3 956.2,860.7 934,924.1 807.4,608 927.4,766.7 927.4,766.5 949.5,703 		
			"/>
	</g>
	<path class="st4" d="M692.3,462.2l-69.6,194.2c-0.2,0.6,0.1,1.3,0.7,1.6l10.3,3.7c0.6,0.2,1.3-0.1,1.6-0.7l69.6-194.2
		c0.2-0.6-0.1-1.3-0.7-1.6l-10.3-3.7C693.2,461.3,692.5,461.6,692.3,462.2z"/>
	<line class="st0" x1="1107.5" y1="1135.6" x2="1329.4" y2="916.3"/>
</g>
<g>
	<g>
		<g>
			<path class="st4" d="M1341,492.9h306.3c6.5,0,11.8-5.3,11.8-11.8c0-6.5-5.3-11.8-11.8-11.8H1341c-6.5,0-11.8,5.3-11.8,11.8
				C1329.2,487.6,1334.5,492.9,1341,492.9z"/>
			<path class="st4" d="M1652.1,1215c2.6-3.6,24.6-34.3,24.6-34.3l-4.2-651.5l-26.1-36.3h-301.2l-26.1,36.3l4.2,651.5l24.6,34.2
				h-3.1c-6.5,0-11.8,5.3-11.8,11.8c0,6.5,5.3,11.8,11.8,11.8h306.3c6.5,0,11.8-5.3,11.8-11.8
				C1662.9,1220.6,1658.2,1215.5,1652.1,1215z"/>
		</g>
		<polyline class="st2" points="1577.5,792.7 1445.2,1106.5 1471.2,909.2 1410.8,938.7 1543,624.9 1516.8,822.1 1516.9,821.9 
			1577.3,792.4 		"/>
	</g>
	<path class="st4" d="M1563.6,440.3l-186,89.2c-0.6,0.3-0.9,1-0.6,1.6l4.7,9.9c0.3,0.6,1,0.9,1.6,0.6l186-89.2
		c0.6-0.3,0.9-1,0.6-1.6l-4.7-9.9C1564.9,440.2,1564.2,440,1563.6,440.3z"/>
	<path class="st0" d="M1631.1,492.9"/>
</g>
<g>
	<g>
		<g>
			<path class="st1" d="M1358.2,902.9l4.4,306.2c0.1,6.5,5.5,11.7,12,11.7c6.5-0.1,11.7-5.5,11.7-12l-4.4-306.2
				c-0.1-6.5-5.5-11.7-12-11.7C1363.4,891,1358.1,896.4,1358.2,902.9z"/>
			<path class="st1" d="M640.7,1224.4c3.7,2.6,34.6,24.2,34.6,24.2l651.3-13.6l36-26.6l-4.3-301.2l-36.7-25.6l-651.3,13.6
				l-33.8,25.1l0-3.1c-0.1-6.5-5.5-11.7-12-11.7c-6.5,0.1-11.7,5.5-11.7,12l4.4,306.2c0.1,6.5,5.5,11.7,12,11.7
				C635.3,1235.2,640.2,1230.4,640.7,1224.4z"/>
		</g>
		<polyline class="st2" points="1061.9,1143.6 746.2,1015.9 943.9,1039.1 913.5,979.1 1229.2,1106.8 1031.6,1083.4 1031.8,1083.5 
			1062.2,1143.5 		"/>
	</g>
	<path class="st1" d="M1414.1,1124.7L1322.2,940c-0.3-0.6-1-0.9-1.6-0.6l-9.8,4.9c-0.6,0.3-0.9,1-0.6,1.6l91.9,184.7
		c0.3,0.6,1,0.9,1.6,0.6l9.8-4.9C1414.1,1126,1414.4,1125.3,1414.1,1124.7z"/>
</g>
<path id="defico" class="st2" d="M625.9,497H424.6c-2,0-3.6-1.6-3.6-3.6v-1.1c0-2,1.6-3.6,3.6-3.6h201.3c2,0,3.6,1.6,3.6,3.6v1.1
	C629.5,495.4,627.9,497,625.9,497z"/>
<path id="defico_1_" class="st2" d="M719.2,520.1L576.9,662.4c-1.4,1.4-3.7,1.4-5,0l-0.8-0.8c-1.4-1.4-1.4-3.7,0-5l142.4-142.4
	c1.4-1.4,3.7-1.4,5,0l0.8,0.8C720.6,516.4,720.6,518.7,719.2,520.1z"/>
<path id="defico_2_" class="st2" d="M651.8,1029.5v201.3c0,2-1.6,3.6-3.6,3.6h-1.1c-2,0-3.6-1.6-3.6-3.6v-201.3c0-2,1.6-3.6,3.6-3.6
	h1.1C650.1,1026,651.8,1027.6,651.8,1029.5z"/>
<path id="defico_3_" class="st2" d="M1360.5,905.3v201.3c0,2-1.6,3.6-3.6,3.6h-1.1c-2,0-3.6-1.6-3.6-3.6V905.3c0-2,1.6-3.6,3.6-3.6
	h1.1C1358.9,901.7,1360.5,903.3,1360.5,905.3z"/>
<path id="defico_4_" class="st2" d="M1655.5,1216.8h-201.3c-2,0-3.6-1.6-3.6-3.6v-1.1c0-2,1.6-3.6,3.6-3.6h201.3
	c2,0,3.6,1.6,3.6,3.6v1.1C1659.1,1215.2,1657.5,1216.8,1655.5,1216.8z"/>
<path id="defico_5_" class="st2" d="M1539.8,501h-201.3c-2,0-3.6-1.6-3.6-3.6v-1.1c0-2,1.6-3.6,3.6-3.6h201.3c2,0,3.6,1.6,3.6,3.6
	v1.1C1543.4,499.4,1541.7,501,1539.8,501z"/>
</svg>
