<?xml version="1.0" encoding="utf-8"?>
<!-- Generator: Adobe Illustrator 22.1.0, SVG Export Plug-In . SVG Version: 6.00 Build 0)  -->
<svg version="1.1" id="Layer_1" xmlns="http://www.w3.org/2000/svg" xmlns:xlink="http://www.w3.org/1999/xlink" x="0px" y="0px"
	 viewBox="0 0 2160 2160" style="enable-background:new 0 0 2160 2160;" xml:space="preserve">
<style type="text/css">
	.st0{fill:#FBFBFB;}
	.st1{fill:#1B1B1B;}
	.st2{fill:#F7F7F7;}
	.st3{fill:#EAE4CE;}
	.st4{opacity:0.3;fill:#7EC5E8;}
</style>
<g>
	<path class="st0" d="M1514.8-125.3c-0.2,1-0.2,2.4-1.7,2.1c-0.5-0.1-0.8-1.4-1.1-2.1C1512.9-125.3,1513.8-125.3,1514.8-125.3z"/>
	<path class="st0" d="M1687.8-123.9c-0.5-0.5-1-1-1.4-1.4C1687.6-125.6,1688.1-125.1,1687.8-123.9z"/>
	<path class="st0" d="M-598.3-125.9c-0.5,0.5-1,1-1.4,1.4C-600-125.7-599.6-126.2-598.3-125.9z"/>
	<path class="st1" d="M656.6,1610.1c8.6-24.6,33.7-42.5,59.7-41.8c13.6,0.4,27.2-0.1,40.7,0.2c5.1,0.1,7.4-0.6,7.5-6.8
		c0.7-43.7,6.3-86.8,19.7-128.6c19.6-61.1,55.9-110.8,104.3-152.2c18.8-16.1,37.7-32,56.5-48.1c8.4-7.2,15.7-15.3,21.6-24.6
		c12.8-20,13.3-40.7,2.1-61.5c-9.8-18.2-25.3-31.4-40.8-44.4c-29.8-25.2-60.2-49.7-85.4-79.9c-39-46.7-61.5-100.6-71.5-160.1
		c-4-23.8-5.9-47.7-6.2-71.8c-0.1-5.2-1.8-6.2-6.6-6.2c-15.7,0.2-31.5,0.6-47.1-0.4c-31.7-2.2-55.2-26.5-56.4-58.3
		c-0.5-13.5-1.6-27.2,1.2-40.6c6.2-29.1,31.2-48.2,62.4-48.2c82.4,0,164.9,0,247.3,0c85.3,0,170.6,0.1,255.9,0.1
		c2.8,0,5.7-0.2,8.5-0.3c32.4,0.1,64.8,0.1,97.2,0.4c19.5,0.2,39-1.2,58.5,1.1c6.9,0.8,13.3,3.1,19.5,5.9
		c16.6,7.5,25.8,21.1,30.7,38.1c4.5,15.7,3.2,31.8,1.7,47.6c-2.8,27.9-18.9,44.8-45.2,53c-5.5,1.7-11.2,1.8-16.8,1.9
		c-12.1,0.2-24.3,0.1-36.5,0c-11.5,0-12,0-11.8,11.4c0.5,40.1-6.5,79.2-17.7,117.4c-2.8,9.5-6.6,18.9-10.3,28.2
		c-7,17.9-16.7,34-26.6,50.2c-5.8,9.4-12.8,18-19.5,26.8c-28.2,36.3-65.2,63.3-99.2,93.4c-9.8,8.7-19.1,17.9-26.4,28.9
		c-16.5,24.8-15,51.7,4.1,74.4c16.6,19.6,37.4,34.5,57.1,50.6c34.2,28.1,65.3,59,88.4,97.1c22.2,36.6,35.4,76.3,43,118.3
		c4.3,23.8,5.9,47.7,7.9,71.6c0.2,1.9-1.3,3.3-1,5.4c1.4,10.4,1.3,10.4,12.3,10.4c12.6,0,25.3,0.1,37.9,0
		c15.6-0.1,29.7,5.1,40.8,15.4c10.9,10,18.6,22.9,19.5,38.4c1,16.1,2.5,32.4-1.7,48.3c-6.9,26.2-28.9,43.8-55.8,45.3
		c-2.4,0.1-4.8,0.2-7.1,0.2c-218-0.1-436.1-0.1-654.1-0.2c-32.3,0-56.3-18.3-63.2-48.1c-1.6-6.8-0.9-13.7-1.9-20.6
		c0.2-8.2,0.5-16.3,0.7-24.5C655.2,1618.6,655.9,1614.3,656.6,1610.1z M1136.3,1071.1c0.4,0,0.6-0.2,0.7-0.6
		c1.1-0.9,2.2-1.9,3.3-2.8c3.1-1.8,5.8-4.2,8.2-6.9c1.8-0.6,3-1.9,4-3.5c0.3-2,2.7-1.4,3.4-2.8c1.5-1.2,3-2.5,4.4-3.7
		c30.3-25.5,56.5-54.4,75.9-89.2c29.9-53.6,39.6-112,41.1-172.4c0.1-5.6-3.2-4.6-6.4-4.6c-149.4,0-298.8,0-448.2-0.3
		c-6.3,0-7.5,2-7.2,7.7c1.2,20.9,2.3,41.8,5.5,62.6c7.6,48.4,23.7,93.3,52.3,133.5c23.6,33.1,54.2,59.3,85.1,85.1
		c19.2,16,38.7,31.8,53.2,52.7c1.2,1.8,2.5,3.7,3.7,5.5c0.3,2.2,1.7,3.9,3,5.6c0.4,2.2,1.2,4.1,2.7,5.8c9,24.7,8.7,49-3.1,72.8
		c-1.2,1.8-2.3,3.7-3.5,5.5c-6.2,7.8-12.4,15.5-18.6,23.3c-6.6,6.1-13.1,12.2-19.7,18.2c-5.1,4.3-10.2,8.6-15.3,12.9
		c-2.2,0.8-3.7,2.4-5.2,4.1c-2.6,1.4-4.9,3.3-6.7,5.6c-0.9,0.7-1.9,1.5-2.8,2.2c-1.8,1.5-3.7,3.1-5.5,4.6c-3.4,2.1-6.2,4.7-8.8,7.7
		c-1.1,0.9-2.1,1.8-3.2,2.7c-2.5,1.8-5,3.6-6.7,6.2c-1.6,1.4-3.2,2.9-4.9,4.3c-10,9.3-19.9,18.7-28.1,29.8c-2,1.4-3.5,3.3-4.5,5.5
		c-2.5,1.9-4.2,4.5-5.8,7.2c-3.5,4-6.5,8.3-9,12.9c-0.5,0.1-0.7,0.4-0.6,0.9c-0.4,0.6-0.8,1.3-1.2,1.9c-2.8,2.7-4.4,6.1-5.9,9.6
		c-2.1,2.2-3.5,4.8-4.5,7.6c-3,4-5.2,8.3-6.7,13c-0.3,0.4-0.5,0.8-0.8,1.2c-11.9,23.7-20.4,48.5-24.9,74.6c-1.6,2.2-1.6,4.6-1.5,7.1
		c-6.3,26.3-7.3,53.1-8.4,80c-0.2,5.2,3.4,4.1,6.3,4.1c149.8,0.1,299.5,0.1,449.3,0.3c5.2,0,6.3-1.6,6.1-6.4
		c-1-34.8-4.6-69.2-13.1-103.1c-17.5-69.8-56.4-125.3-112.7-169.3c-0.3-0.3-0.7-0.6-1-0.9c-7.4-6.8-15.1-13.1-23.3-18.9
		c-0.9-1.7-2.4-2.7-4.1-3.4c-12.8-11.5-25.9-22.6-37.2-35.6c-2.4-3.2-4.8-6.5-7.2-9.7c-1-2.7-2.3-5.1-4.3-7.1
		c-2.5-6.7-5-13.3-7.4-20c0.2-2-0.2-3.9-1.2-5.7c0-8.1-0.1-16.2-0.1-24.3c1.4-5.2,2.7-10.5,4.1-15.7c3.1-12,9.3-22.4,17.9-31.3
		c1.8-1.3,3.3-2.9,4.3-5c3.4-6.2,8.8-12,13.8-15.3c10.2-6.6,16.6-17.2,27.2-22.9C1134.4,1073.6,1135.3,1072.4,1136.3,1071.1z
		 M1077,745.5c2.6,0.2,5.2,0.5,7.8,0.5c41.9,0,83.8,0,125.7,0.1c54.8,0,109.6,0,164.3,0c16.1,0,25.1-9,25.1-25.2
		c0-6.2,0-12.4,0-18.6c0-18-8.7-26.7-26.6-26.7c-89.8,0-179.6-0.1-269.4-0.1c-2.4,0-4.7,0.2-7.1,0.3c-0.9-0.1-1.9-0.3-2.8-0.3
		c-125.8-0.1-251.6-0.1-377.4-0.1c-14,0-23.3,9.4-23.9,23.9c-0.3,6.9-0.1,13.8,0,20.7c0.2,17,9.2,25.9,26.2,25.9
		c117,0,234,0.1,351,0.1C1072.3,745.9,1074.6,745.6,1077,745.5z M1046.8,1607.1c-3.3,0-6.7,0-10,0c-106.3,0-212.6-0.1-318.8-0.1
		c-16.2,0-25.1,8.7-25.5,25c-0.1,6.2-0.1,12.4,0,18.6c0.1,18,8.9,26.7,26.8,26.7c119.1,0,238.3,0.1,357.4,0.1
		c99.4,0,198.7,0.1,298.1,0.1c15.7,0,24.8-9.1,24.9-24.8c0-6.4,0-12.9,0-19.3c0-17.8-8.4-26.2-26.2-26.2
		C1264.6,1607.2,1155.7,1607.2,1046.8,1607.1z"/>
	<path class="st0" d="M869.8,1368.4c2.5-4.7,5.6-9,9-12.9c4.8,0.2,2.3,4.3,3.4,6.4c1,2.1,1.6,4.1,4.4,3c2.4-0.9,4.9-4.2,3.6-5.1
		c-4.2-3-2.2-8.5-5.6-11.5c1-2.2,2.5-4.1,4.5-5.5c0.9,2.2-0.9,6.3,3.8,6.1c4.3-0.2,2.4-3.1,2.6-5.5c0.3-4.4,2.8-5.5,6.8-3
		c3,1.8,6.8,2.3,9.2-0.1c2.8-2.7-2-4.7-2-7.4c11.1-3.2,13.4-8.9,7.6-19.8c1.6-1.4,3.2-2.9,4.9-4.3c0.6,2.5,1,5.2,1.9,7.5
		c1.4,3.3,6.2,1.8,6,1.4c-2-5,3.6-10.6-1.3-15.2c1.1-0.9,2.1-1.8,3.2-2.7c10.9,0.5,10.9,0.5,8.8-7.7c1.8-1.5,3.7-3.1,5.5-4.6
		c0.7,1.3,1.1,3.8,3.2,2.5c2.2-1.3,1-3.2-0.4-4.7c1.9-2.3,4.1-4.2,6.7-5.6c3.3,0.6,5.5-0.1,5.2-4.1c5.1-4.3,10.2-8.6,15.3-12.9
		c3.5,2.1,6.2,1.2,8.2-2.3c2.7-4.9,7-6.6,12.3-6.1c0.1,0.7,0.2,1.5,0.5,2.1c0.7,1.2,2.1,2.8,3,1c0.9-1.8-1.1-2.6-3.5-3.1
		c-0.1-3.2,0.4-6.6-0.8-9.8c6.2-7.8,12.4-15.5,18.6-23.3c3.9-0.1,5.5-1.7,3.5-5.5c11.8-23.8,12.1-48.1,3.1-72.8
		c1.6-3.1,2.5-5.9-2.7-5.8c-1.4-1.7-2.7-3.3-3-5.6c2.2-4.2,1.6-6.4-3.7-5.5c-14.5-20.8-34-36.6-53.2-52.7
		c-30.9-25.8-61.5-52-85.1-85.1c-28.6-40.1-44.8-85.1-52.3-133.5c-3.2-20.7-4.4-41.6-5.5-62.6c-0.3-5.7,0.9-7.7,7.2-7.7
		c149.4,0.2,298.8,0.2,448.2,0.3c3.2,0,6.5-1,6.4,4.6c-1.5,60.4-11.2,118.8-41.1,172.4c-19.4,34.8-45.6,63.7-75.9,89.2
		c-0.9-2.6,1-7-3.3-7.4c-2.6-0.3-4.2,3-5.1,5.1c-1.4,3.3,0.9,5.2,4,6c-0.7,1.5-3.1,0.9-3.4,2.8c-2.9-0.7-4,0.8-4,3.5
		c-2.4,2.7-5.1,5.1-8.2,6.9c-0.7-1.3-1.6-2.3-3.1-1.2c-1.6,1.2-1.3,2.6-0.2,4c-0.1,0.3-0.4,0.5-0.7,0.6c-3.6-2-3.3,0.8-3.5,2.9
		c-10.6,5.7-17,16.3-27.2,22.9c-5.1,3.3-10.4,9.1-13.8,15.3c-2-3.6-5.2-2.1-6.7-0.3c-1.9,2.2-1.1,4.8,2.4,5.3
		c-8.6,8.9-14.8,19.2-17.9,31.3c-3.4,0.3-3.7,2.9-4.2,5.6c-0.8,4.1-1.2,9.1-9.1,4.2c2.9,5,5.8,6,9.3,6c0,8.1,0.1,16.2,0.1,24.3
		c-1.1-0.3-2-3.4-3.5-0.2c-2.4,5.2,2.9,4.1,4.7,5.9c2.5,6.7,5,13.3,7.4,20c-5.1,2.1,0,5.1-0.2,7.6c-0.1,2.1,2.9-0.2,4.5-0.5
		c2.4,3.2,4.8,6.5,7.2,9.7c-0.7,3.1-1.3,6.2-4.7,7.4c-2.8,1-3.3,3.3-1.9,5c1.7,2,1.1,6.4,4.9,6.1c3.1-0.2,2.9-3.2,3.1-5.5
		c0.1-1.5,0.6-2.9,2.2-3.3c1.1-0.3,1.5,0.6,2,1.5c4.4,8.2,10,15.9,10.5,25.7c0.2,3.2,2.1,4.4,5,4.8c6.9,1.1,15.4-1.3,17.4,9.6
		c0.6,3.1,5.2,3.6,8.7,3.2c1.9-0.2,3.7-0.7,5.5-1.1c1.4,2.3,1.5,4.8,1.5,7.4c0,1.8,0.9,3.1,2.6,3.7c2,0.6,3.6,0.1,4.8-1.7
		c0.9-1.6,2-3.1,3-4.7c0.3,0.3,0.7,0.6,1,0.9c2.1,7.5,4.2,15,6.2,22.5c0.8,2.8,2.8,7.1-1.9,7.3c-5.2,0.2-9.4,3.1-14.4,3.3
		c-3.1,0.1-6.2,1.7-6.3,4.8c-0.2,7.6-9.5,7.7-10.9,14.1c-0.1,0.6-2.6,0.6-3.9,1.1c-7.7,2.6-14.5,5.7-20.7,11.8
		c-4.4,4.3-11.6,5.8-12.7,13.5c0,0.3-2.2,0.3-3.4,0.6c-12.7,3.3-18,9.3-27,16.6c-5.7,4.6-11.9,10.4-19,12.8c-5.4,1.8-8.2,3.7-8.9,9
		c-2.8,1-5.7,2.1-8.5,3.1c-2.1-1.8-15.3-3.3-16.6-1.5c-0.7,0.9-1.2,2.9,0.1,4.2c1.2,1.1,2.6,2,3.8,3c-0.7,1.1-1.7,1.4-2.9,1.4
		c-2.1-2.1-5.2-4.6-6.9-1.4c-2.5,4.4-7,5-9.8,4.4c-5.7-1.1-8.5,2.5-12.2,4.8c-4.1,2.6-4,5.4-0.1,8.3c-1.8,1-3.5,2-5.3,3
		c-1-5.7-5.1-6.5-9.6-5.3c-9.6,2.6-15.6,11.7-25.4,14.4c-2.1,0.6,0.3,9.4-7,5.2c-0.5-0.3-1.3,1.6-0.7,2.3c2.3,2.7,0,2.9-1.7,3.4
		c-2.9,0.9-5.5,2-8.9,1.1c-4.9-1.3-9.4-0.5-12,5c-0.8,1.8-3.4,4.5-4.9,2.1c-4.2-6.5-8-2-11.4,0c-3.9,2.4-7.6,4.2-12.4,4.3
		c-3.2,0-6.8,1.6-8.5,4.6c-2.2,3.9-3.8,5.4-6.8,0.9c-1.2-1.9-3.2-1.8-3.6,0.4c-1.1,6.7-5,6.9-10.4,5.4c-2.7-0.7-5.6-0.2-8.3,1.1
		c-4.5,2.1-9.4,3.2-14.5,3c-0.2-2.5-0.1-5,1.5-7.1c0.9,0.2,1.8,0.4,2.8,0.7c1.8,0.5,4,1.7,4.9-0.6c0.8-2.1-1.6-2.4-3-3.1
		c-2-1-2.4-3-0.4-3.6c3.4-1.1,5.9-4.8,9.5-4c4.1,0.9,5.8-0.9,5.7-4c-0.1-3.9-3.2-2.1-5.4-1.8c-3.5,0.5-3.7-2.4-4-4.6
		c-0.4-2.9,1.4-2.7,3.7-2.2c7.1,1.3,6.7-3.8,5.8-8c-1-5.2-0.6-10,2.4-14.1c3.6-5,8.9-9.1,4.5-16.3c-1.3-2.1,1.5-3.2,2.1-4.9
		c1.2-3.9,1.1-6.9-3.7-8c0.3-0.4,0.5-0.8,0.8-1.2c2.4-0.1,4.5,0.3,6.6,1.9c1.5,1.1,4.5-1.6,4-1.9c-5.9-3.2-1.7-6.5-0.8-10
		c0.6-2-1.3-2.8-3.1-3.1c0.9-2.9,2.4-5.4,4.5-7.6c1,3.3,4.6,3.9,6.6,6.1c2.3,2.5,4.9,1.8,6.6-0.7c1.6-2.3,4.1-4.3,1.1-8
		c-2.5-3-6.6-3.6-8.4-7c0.4-0.6,0.8-1.3,1.2-1.9c0.6,1.1,1.3,2,2.6,1.7c0.4-0.1,1.1-1.2,1-1.4C872.2,1368.4,871,1368.4,869.8,1368.4
		z M1052.5,1102.4L1052.5,1102.4c2.8,0.1,6.3,0.5,3-4.1c0.4-0.5,0.8-1,1.2-1.5c4,0.1,4.7-2.5,4.6-5.7c0.4-0.5,0.9-1,1.3-1.5
		c1.3,1.1,3.2,2.3,4.4,0.9c4.3-4.8,10.2-8.8,10-16.4c1.4-2.4,3.2-4.5,5.8-5.7c6.1,0.5,9.8-2.9,9.9-8.8c1.6-3.1,4.7-4.5,7.4-6.2
		c3.4,1.2,5.8-1.4,8.7-2.2c4.8-1.3,3.8-3.9,1.4-6.7c4.3-3.5,8.6-7,12.8-10.5c5.3,1.6,6.9-1.2,6.8-5.9c0.1-0.9,0.6-1.3,1.5-1.3
		c4.2,2.2,4.4-0.3,4-3.4c4.3-3.7,7.4-8.9,12.9-11.3c2.1,3,5.2,1.2,6.7,0.2c1.9-1.3-0.1-3.8-0.9-5.7c15-15.9,29.8-32,41.5-50.6
		c6.3-10.1,12.3-20.3,17.1-32c-2.2,0.2-3.4,0.3-4.5,0.4c-37.4,4.1-73.8,13.8-110.5,21.6c-21.6,4.6-43.1,9.8-65.6,6.9
		c-31-3.9-61-12.1-91.5-18.4c-19.7-4.1-39.3-8.3-60.3-10.1c7.7,17.6,17.2,33.1,28.2,47.8c21.7,28.8,49.3,51.4,76.6,74.4
		c15.8,13.3,31.9,26.4,44.8,42.7c-0.6,2.2-4,3.7-2.5,6.2c1.9,3.2,4.6-0.6,7,0c0.2,0.1,0.5,0,0.7,0c3.7,3.6,6.9,7.7,9,12.4
		c1.6,3.6,2.7,0.8,4,0.4C1052.1,1108.2,1052.9,1105.7,1052.5,1102.4z M1099.4,1060.1c-0.7,0.4-2.5,1.1-2.4,1.6
		c0.2,1.5,1.4,2.8,3,3.2c1.3,0.3,2.1-0.8,2.3-2C1102.3,1061.3,1101.3,1060.4,1099.4,1060.1z M1009.2,1113.1
		c-0.3-0.6-0.5-1.3-0.6-1.3c-0.6,0.1-1.4,0.2-1.8,0.6c-0.6,0.7-0.1,1.3,0.7,1.4C1008,1113.8,1008.6,1113.4,1009.2,1113.1z
		 M931.4,1443.8c0.2-0.4,0.5-0.9,0.4-1.1c-0.1-0.3-0.7-0.4-1.1-0.5c-0.2,0.4-0.5,0.9-0.4,1.1C930.4,1443.5,931,1443.6,931.4,1443.8z
		 M1026,1399c0.4,0.2,0.9,0.6,1.1,0.4c0.3-0.1,0.4-0.7,0.5-1.1c-0.4-0.2-0.9-0.6-1.1-0.4C1026.2,1398,1026.1,1398.6,1026,1399z
		 M1067.5,1095.1c-0.1,0.2-0.1,0.4-0.2,0.6c0.2,0.1,0.4,0.2,0.5,0.2c0.1-0.1,0.2-0.4,0.2-0.6
		C1067.8,1095.3,1067.7,1095.2,1067.5,1095.1z M1032.1,1154.5c0.1-0.2,0.1-0.4,0.2-0.6c-0.2-0.1-0.4-0.2-0.5-0.2
		c-0.1,0.1-0.2,0.4-0.2,0.6C1031.7,1154.4,1031.9,1154.5,1032.1,1154.5z"/>
	<path class="st2" d="M1046.8,1607.1c108.9,0,217.8,0.1,326.7,0.1c17.8,0,26.2,8.4,26.2,26.2c0,6.4,0,12.9,0,19.3
		c-0.1,15.6-9.2,24.8-24.9,24.8c-99.4,0-198.7,0-298.1-0.1c-119.1,0-238.3-0.1-357.4-0.1c-17.9,0-26.7-8.7-26.8-26.7
		c0-6.2-0.1-12.4,0-18.6c0.4-16.2,9.3-25,25.5-25c106.3,0,212.6,0.1,318.8,0.1C1040.1,1607.1,1043.4,1607.1,1046.8,1607.1z"/>
	<path class="st2" d="M1028.3,1407.1c0.7-5.3,3.6-7.2,8.9-9c7.1-2.4,13.3-8.2,19-12.8c9.1-7.3,14.3-13.3,27-16.6
		c1.1-0.3,3.3-0.2,3.4-0.6c1.1-7.7,8.3-9.2,12.7-13.5c6.2-6.1,13-9.2,20.7-11.8c1.3-0.4,3.7-0.5,3.9-1.1c1.4-6.4,10.8-6.5,10.9-14.1
		c0.1-3,3.2-4.6,6.3-4.8c5-0.2,9.2-3.1,14.4-3.3c4.7-0.2,2.7-4.4,1.9-7.3c-2-7.5-4.1-15-6.2-22.5c56.3,44,95.2,99.5,112.7,169.3
		c8.5,33.9,12.1,68.3,13.1,103.1c0.1,4.8-0.9,6.4-6.1,6.4c-149.8-0.2-299.5-0.2-449.3-0.3c-2.9,0-6.5,1.1-6.3-4.1
		c1.1-26.8,2.1-53.7,8.4-80c5.1,0.2,9.9-0.9,14.5-3c2.7-1.3,5.7-1.9,8.3-1.1c5.4,1.5,9.3,1.3,10.4-5.4c0.4-2.2,2.4-2.2,3.6-0.4
		c3,4.6,4.6,3,6.8-0.9c1.7-3,5.3-4.6,8.5-4.6c4.8-0.1,8.5-1.9,12.4-4.3c3.4-2.1,7.2-6.5,11.4,0c1.5,2.4,4.1-0.4,4.9-2.1
		c2.6-5.5,7.1-6.2,12-5c3.4,0.9,6-0.2,8.9-1.1c1.7-0.5,4-0.7,1.7-3.4c-0.6-0.7,0.3-2.5,0.7-2.3c7.3,4.3,4.9-4.6,7-5.2
		c9.8-2.7,15.8-11.8,25.4-14.4c4.5-1.2,8.5-0.4,9.6,5.3c-12.1,7-24,14.4-36.4,21.1c-21.5,11.6-43.3,23-68.2,25.5
		c-3.6,0.4-4,2.6-4.4,5.3c-1.7,11.3-3.6,22.5-5.3,33.8c-1.3,8.6-1.2,8.7,7.5,8.7c121.4,0,242.9,0.1,364.3,0.1c1.9,0,3.8-0.2,5.7,0
		c3.6,0.4,4.4-1.3,4.1-4.6c-1.2-13-3-26-5.5-38.8c-0.6-2.9-1.8-4-4.5-4.2c-19.1-1.3-36.4-8.5-53.4-16.6
		c-27.5-13.1-52.9-29.9-79.6-44.4C1073.6,1411.2,1053.2,1398.9,1028.3,1407.1z"/>
	<path class="st0" d="M1077,745.5c-2.4,0.1-4.7,0.4-7.1,0.4c-117,0-234,0-351-0.1c-17,0-26-8.9-26.2-25.9c-0.1-6.9-0.2-13.8,0-20.7
		c0.6-14.5,9.9-23.9,23.9-23.9c125.8,0,251.6,0.1,377.4,0.1c0.9,0,1.9,0.2,2.8,0.3c0.7,5.3,4.8,3.7,7.8,3.7
		c37.2,0.1,74.3,0.1,111.5,0.1c1.9,0,3.9-0.2,5.7,0.2c3.7,0.7,5.4,3.9,2.8,6c-3,2.5-2.4,6.3-5,9.7c-1.6-4.3-0.9-8.9-7-8.9
		c-38.6,0.2-77.2,0.1-115.8,0.1c-3.3,0-6.4,0.9-7.6,4.2c-4,11.1-8.7,22-8.1,34.2c0.1,2.6,0.7,5.4-1.2,7.6
		C1076.9,736.4,1076.9,740.9,1077,745.5z"/>
	<path class="st2" d="M1077,745.5c-0.1-4.5-0.1-9,3.2-12.8c1.9-2.2,1.3-5,1.2-7.6c-0.6-12.2,4.1-23.1,8.1-34.2
		c1.2-3.4,4.3-4.2,7.6-4.2c38.6,0,77.2,0.1,115.8-0.1c6.1,0,5.4,4.6,7,8.9c2.5-3.4,2-7.2,5-9.7c2.6-2.2,0.9-5.4-2.8-6
		c-1.8-0.3-3.8-0.2-5.7-0.2c-37.2,0-74.3,0-111.5-0.1c-3,0-7.1,1.6-7.8-3.7c2.4-0.1,4.7-0.3,7.1-0.3c89.8,0,179.6,0,269.4,0.1
		c17.9,0,26.5,8.7,26.6,26.7c0,6.2,0,12.4,0,18.6c0,16.2-9,25.2-25.1,25.2c-54.8,0-109.6,0-164.3,0c-41.9,0-83.8,0-125.7-0.1
		C1082.2,746,1079.6,745.7,1077,745.5z"/>
	<path class="st2" d="M1138.4,1284.3c-1.8,0.4-3.7,0.9-5.5,1.1c-3.4,0.4-8.1-0.1-8.7-3.2c-2.1-10.9-10.6-8.5-17.4-9.6
		c-3-0.5-4.9-1.7-5-4.8c-0.5-9.8-6.1-17.5-10.5-25.7c-0.5-0.9-1-1.8-2-1.5c-1.5,0.5-2.1,1.8-2.2,3.3c-0.2,2.4,0,5.4-3.1,5.5
		c-3.8,0.2-3.2-4.1-4.9-6.1c-1.4-1.7-0.9-4,1.9-5c3.4-1.2,4.1-4.3,4.7-7.4c11.3,13,24.4,24.1,37.2,35.6c0.2,2.1-1.3,4.8,1.7,5.8
		c1.6,0.6,2.2-1,2.4-2.4c8.2,5.8,15.9,12.1,23.3,18.9c-1,1.6-2,3.1-3,4.7c-1.1,1.9-2.8,2.4-4.8,1.7c-1.7-0.6-2.6-1.9-2.6-3.7
		C1139.8,1289.1,1139.8,1286.5,1138.4,1284.3l0.6-0.3l-0.3-0.3L1138.4,1284.3z"/>
	<path class="st2" d="M850.1,1402.6c4.8,1,4.8,4.1,3.7,8c-0.5,1.8-3.3,2.9-2.1,4.9c4.4,7.2-0.9,11.3-4.5,16.3
		c-2.9,4.1-3.4,8.9-2.4,14.1c0.9,4.2,1.3,9.3-5.8,8c-2.3-0.4-4-0.6-3.7,2.2c0.3,2.2,0.4,5.1,4,4.6c2.2-0.3,5.3-2.1,5.4,1.8
		c0.1,3.1-1.7,4.9-5.7,4c-3.6-0.8-6.1,3-9.5,4c-2,0.6-1.7,2.6,0.4,3.6c1.4,0.7,3.8,1.1,3,3.1c-0.9,2.3-3.2,1.1-4.9,0.6
		c-0.9-0.3-1.8-0.5-2.8-0.7C829.8,1451.1,838.3,1426.3,850.1,1402.6z"/>
	<path class="st2" d="M917.2,1313c5.8,10.9,3.5,16.7-7.6,19.8l-0.3-0.6l-0.3,0.3l0.6,0.3c0,2.7,4.8,4.7,2,7.4
		c-2.5,2.4-6.3,1.8-9.2,0.1c-4-2.4-6.5-1.4-6.8,3c-0.2,2.4,1.7,5.3-2.6,5.5c-4.7,0.2-2.9-3.8-3.8-6.1
		C897.3,1331.7,907.2,1322.3,917.2,1313z"/>
	<path class="st2" d="M868,1371.2c1.8,3.5,5.9,4.1,8.4,7c3,3.7,0.5,5.7-1.1,8c-1.7,2.5-4.2,3.2-6.6,0.7c-2.1-2.2-5.6-2.9-6.6-6.1
		C863.6,1377.3,865.2,1373.9,868,1371.2z"/>
	<path class="st2" d="M996.8,1254.2c-5.4-0.6-9.6,1.2-12.3,6.1c-2,3.5-4.6,4.4-8.2,2.3c6.6-6.1,13.1-12.2,19.7-18.2
		C997.2,1247.5,996.7,1250.9,996.8,1254.2z"/>
	<path class="st2" d="M928.8,1302.4c4.8,4.6-0.8,10.2,1.3,15.2c0.2,0.4-4.7,1.9-6-1.4c-1-2.4-1.3-5-1.9-7.5
		C923.8,1306,926.3,1304.2,928.8,1302.4z"/>
	<path class="st2" d="M884.7,1348.3c3.4,3,1.4,8.5,5.6,11.5c1.3,0.9-1.2,4.2-3.6,5.1c-2.9,1.1-3.4-1-4.4-3c-1.1-2.2,1.4-6.3-3.4-6.4
		C880.5,1352.8,882.2,1350.2,884.7,1348.3z"/>
	<path class="st2" d="M857.6,1388.4c1.8,0.2,3.6,1,3.1,3.1c-0.9,3.4-5.1,6.8,0.8,10c0.5,0.3-2.5,3.1-4,1.9c-2.1-1.6-4.2-2-6.6-1.9
		C852.4,1396.7,854.7,1392.4,857.6,1388.4z"/>
	<path class="st2" d="M1155.8,1054.5c-3.1-0.8-5.4-2.7-4-6c0.9-2.1,2.5-5.4,5.1-5.1c4.3,0.5,2.4,4.8,3.3,7.4
		C1158.8,1052.1,1157.3,1053.3,1155.8,1054.5z"/>
	<path class="st2" d="M1065.4,1164.2c-3.5,0-6.4-1-9.3-6c7.9,4.9,8.3-0.1,9.1-4.2c0.5-2.7,0.8-5.2,4.2-5.6
		C1068.1,1153.7,1066.8,1158.9,1065.4,1164.2z"/>
	<path class="st2" d="M940.8,1292.1c2.1,8.1,2.1,8.1-8.8,7.7C934.6,1296.8,937.5,1294.2,940.8,1292.1z"/>
	<path class="st2" d="M1087.4,1117.1c-3.5-0.5-4.3-3.1-2.4-5.3c1.5-1.7,4.6-3.3,6.7,0.3C1090.7,1114.2,1089.2,1115.8,1087.4,1117.1z
		"/>
	<path class="st2" d="M1078.5,1221.3c-1.6,0.3-4.6,2.6-4.5,0.5c0.1-2.5-5-5.5,0.2-7.6C1076.2,1216.2,1077.5,1218.6,1078.5,1221.3z"
		/>
	<path class="st2" d="M1066.7,1194.2c-1.8-1.8-7.1-0.7-4.7-5.9c1.5-3.3,2.4-0.1,3.5,0.2C1066.5,1190.2,1066.9,1192.1,1066.7,1194.2z
		"/>
	<path class="st0" d="M1126.9,1270c-0.2,1.4-0.8,3-2.4,2.4c-2.9-1.1-1.5-3.8-1.7-5.8C1124.5,1267.3,1126,1268.3,1126.9,1270z"/>
	<path class="st2" d="M1011.7,1125.9c5.3-0.9,5.9,1.4,3.7,5.5C1014.2,1129.5,1012.9,1127.7,1011.7,1125.9z"/>
	<path class="st2" d="M1018.4,1137c5.2-0.1,4.4,2.6,2.7,5.8C1019.7,1141.1,1018.8,1139.1,1018.4,1137z"/>
	<path class="st2" d="M1018.1,1215.5c2,3.8,0.4,5.4-3.5,5.5C1015.8,1219.2,1016.9,1217.4,1018.1,1215.5z"/>
	<path class="st2" d="M949.2,1285.2c1.4,1.5,2.6,3.4,0.4,4.7c-2.1,1.3-2.5-1.2-3.2-2.5C947.3,1286.7,948.2,1286,949.2,1285.2z"/>
	<path class="st2" d="M1137,1070.5c-1.1-1.4-1.4-2.8,0.2-4c1.5-1.1,2.4-0.1,3.1,1.2C1139.2,1068.7,1138.1,1069.6,1137,1070.5z"/>
	<path class="st2" d="M869.8,1368.4c1.2,0,2.4,0,3,1.1c0.1,0.2-0.5,1.3-1,1.4c-1.3,0.3-2-0.6-2.6-1.7
		C869.1,1368.8,869.3,1368.5,869.8,1368.4z"/>
	<path class="st2" d="M961,1275.5c0.4,4-1.8,4.8-5.2,4.1C957.3,1277.9,958.8,1276.3,961,1275.5z"/>
	<path class="st2" d="M1132.7,1074c0.2-2.1-0.1-4.9,3.5-2.9C1135.3,1072.4,1134.4,1073.6,1132.7,1074z"/>
	<path class="st2" d="M1148.4,1060.8c0-2.7,1-4.2,4-3.5C1151.5,1059,1150.2,1060.2,1148.4,1060.8z"/>
	<path class="st3" d="M1028.3,1407.1c25-8.3,45.3,4,65.8,15.2c26.7,14.5,52.1,31.4,79.6,44.4c17,8.1,34.3,15.3,53.4,16.6
		c2.8,0.2,4,1.3,4.5,4.2c2.5,12.8,4.4,25.8,5.5,38.8c0.3,3.3-0.5,5-4.1,4.6c-1.9-0.2-3.8,0-5.7,0c-121.4,0-242.9-0.1-364.3-0.1
		c-8.6,0-8.7,0-7.5-8.7c1.7-11.3,3.5-22.5,5.3-33.8c0.4-2.7,0.8-5,4.4-5.3c25-2.5,46.7-13.9,68.2-25.5c12.3-6.7,24.2-14,36.4-21.1
		c1.8-1,3.5-2,5.3-3c9.7-5.4,19.4-10.8,29.1-16.1c1.2,0,2.2-0.4,2.9-1.4c4.5-1.3,8.7-3.2,12.7-5.6
		C1022.6,1409.2,1025.4,1408.2,1028.3,1407.1z"/>
	<path class="st3" d="M1030,1089.3c-13-16.3-29-29.4-44.8-42.7c-27.3-23-55-45.6-76.6-74.4c-11-14.6-20.5-30.1-28.2-47.8
		c21,1.8,40.6,6,60.3,10.1c30.4,6.4,60.5,14.5,91.5,18.4c22.5,2.8,44-2.4,65.6-6.9c36.7-7.8,73.1-17.4,110.5-21.6
		c1.2-0.1,2.3-0.2,4.5-0.4c-4.8,11.6-10.8,21.9-17.1,32c-11.7,18.6-26.5,34.7-41.5,50.6c-2.6,1.1-4.4,3.1-5.8,5.5
		c-5.5,2.4-8.6,7.6-12.9,11.3c-1.3,1.1-2.7,2.3-4,3.4c-0.9,0-1.4,0.4-1.5,1.3c-2.3,2-4.5,3.9-6.8,5.9c-4.3,3.5-8.6,7-12.8,10.5
		c-3.4,3-6.8,5.9-10.2,8.9c-2.8,1.7-5.9,3-7.4,6.2c-3.3,2.9-6.6,5.9-9.9,8.8c-2.6,1.2-4.4,3.3-5.8,5.7c-5.1,4.9-10.5,9.5-14.4,15.5
		c-0.4,0.5-0.9,1-1.3,1.5c-2.1,1.4-3.5,3.5-4.6,5.7c-0.4,0.5-0.8,1-1.2,1.5c-1.6,1-2.5,2.4-3,4.2c0,0,0.1-0.1,0.1-0.1
		c-2.1,1.5-3.1,3.7-4.3,5.9c-1.4,0.4-2.5,3.2-4-0.4c-2-4.7-5.2-8.8-9-12.4C1033.9,1093.1,1032.2,1091,1030,1089.3z"/>
	<path class="st2" d="M1004.2,1417.3c-9.7,5.4-19.4,10.8-29.1,16.1c-3.9-2.8-4-5.7,0.1-8.3c3.7-2.3,6.5-6,12.2-4.8
		c2.8,0.6,7.3,0,9.8-4.4C999,1412.7,1002.1,1415.2,1004.2,1417.3z"/>
	<path class="st2" d="M1019.7,1410.2c-4,2.4-8.2,4.4-12.7,5.6c-1.3-1-2.7-1.8-3.8-3c-1.3-1.3-0.9-3.2-0.1-4.2
		C1004.5,1407,1017.6,1408.4,1019.7,1410.2z"/>
	<path class="st2" d="M1062.6,1089.6c3.9-6,9.3-10.6,14.4-15.5c0.2,7.6-5.7,11.6-10,16.4C1065.8,1091.9,1063.9,1090.7,1062.6,1089.6
		z"/>
	<path class="st2" d="M1100.1,1053.5c3.4-3,6.8-5.9,10.2-8.9c2.4,2.9,3.4,5.5-1.4,6.7C1105.9,1052.1,1103.4,1054.7,1100.1,1053.5z"
		/>
	<path class="st2" d="M1082.8,1068.4c3.3-2.9,6.6-5.9,9.9-8.8C1092.6,1065.5,1088.8,1068.9,1082.8,1068.4z"/>
	<path class="st2" d="M1030,1089.3c2.2,1.6,3.9,3.8,5.2,6.2c-0.2,0-0.5,0.1-0.7,0c-2.4-0.7-5.1,3.2-7,0
		C1026,1093,1029.4,1091.5,1030,1089.3z"/>
	<path class="st2" d="M1148.3,1012.2c1.4-2.3,3.2-4.4,5.8-5.5c0.8,1.9,2.7,4.5,0.9,5.7C1153.5,1013.4,1150.4,1015.2,1148.3,1012.2z"
		/>
	<path class="st2" d="M1099.4,1060.1c1.9,0.3,3,1.1,2.8,2.8c-0.1,1.2-1,2.3-2.3,2c-1.5-0.4-2.8-1.6-3-3.2
		C1096.9,1061.3,1098.6,1060.6,1099.4,1060.1z"/>
	<path class="st2" d="M1123.1,1034.1c2.3-2,4.5-3.9,6.8-5.9C1130,1032.9,1128.4,1035.6,1123.1,1034.1z"/>
	<path class="st2" d="M1056.6,1096.8c1.1-2.3,2.5-4.3,4.6-5.7C1061.3,1094.3,1060.6,1096.9,1056.6,1096.8z"/>
	<path class="st2" d="M1052.4,1102.5c0.5-1.7,1.4-3.2,3-4.2C1058.8,1102.9,1055.3,1102.5,1052.4,1102.5z"/>
	<path class="st2" d="M1048.1,1108.3c1.2-2.2,2.2-4.4,4.3-5.9C1052.9,1105.7,1052.1,1108.2,1048.1,1108.3z"/>
	<path class="st2" d="M996.8,1254.1c2.4,0.6,4.5,1.4,3.5,3.2c-0.9,1.7-2.3,0.1-3-1C997,1255.6,997,1254.9,996.8,1254.1z"/>
	<path class="st2" d="M1131.3,1026.9c1.3-1.1,2.7-2.3,4-3.4C1135.8,1026.7,1135.5,1029.1,1131.3,1026.9z"/>
	<path class="st2" d="M1009.2,1113.1c-0.6,0.3-1.2,0.7-1.8,0.7c-0.8,0-1.3-0.7-0.7-1.4c0.4-0.4,1.2-0.5,1.8-0.6
		C1008.7,1111.8,1009,1112.6,1009.2,1113.1z"/>
	<path class="st2" d="M931.4,1443.8c-0.4-0.2-1-0.3-1.1-0.5c-0.1-0.3,0.3-0.7,0.4-1.1c0.4,0.2,1,0.2,1.1,0.5
		C931.9,1442.9,931.5,1443.4,931.4,1443.8z"/>
	<path class="st2" d="M1026,1399c0.2-0.4,0.3-1,0.5-1.1c0.3-0.1,0.7,0.3,1.1,0.4c-0.2,0.4-0.3,1-0.5,1.1
		C1026.8,1399.5,1026.4,1399.2,1026,1399z"/>
	<path class="st2" d="M1067.5,1095.1c0.2,0.1,0.3,0.1,0.5,0.2c-0.1,0.2-0.1,0.4-0.2,0.6c0,0.1-0.3-0.1-0.5-0.2
		C1067.4,1095.5,1067.4,1095.3,1067.5,1095.1z"/>
	<path class="st2" d="M1032.1,1154.5c-0.2-0.1-0.3-0.1-0.5-0.2c0.1-0.2,0.1-0.4,0.2-0.6c0-0.1,0.3,0.1,0.5,0.2
		C1032.2,1154.1,1032.1,1154.3,1032.1,1154.5z"/>
	<polygon class="st0" points="1138.4,1284.3 1138.7,1283.7 1138.9,1284 	"/>
	<polygon class="st0" points="909.6,1332.8 909,1332.5 909.3,1332.2 	"/>
</g>
<path class="st4" d="M970.5,1023c-43,5.7-82.7-45.1-98.9-82.5c-17.9-41.3-25-107.5,8.8-131.7c17.1-12.3,45.3-14.2,56.6-2.1
	c12.4,13.3-5,33.5,0.6,78.5c2,16.4,4.5,36.2,17.8,53.7c23.6,30.9,59.1,25.8,62,43.1C1019.9,997.2,995.6,1019.6,970.5,1023z"/>
<path class="st1" d="M1658.8,949l78.4-597.9c3.3-25.2-20.1-47.2-50.2-47.2l-159.1,0c-30.2,0-53.6,22.1-50.2,47.3l80.7,598
	c2.9,21.5,24.5,37.7,50.2,37.7h0C1634.3,986.8,1655.9,970.5,1658.8,949z"/>
<ellipse class="st1" cx="1607.1" cy="1119.5" rx="82" ry="68.9"/>
</svg>
