<?xml version="1.0" encoding="utf-8"?>
<!-- Generator: Adobe Illustrator 22.1.0, SVG Export Plug-In . SVG Version: 6.00 Build 0)  -->
<svg version="1.1" id="Layer_1" xmlns="http://www.w3.org/2000/svg" xmlns:xlink="http://www.w3.org/1999/xlink" x="0px" y="0px"
	 viewBox="0 0 2160 2160" style="enable-background:new 0 0 2160 2160;" xml:space="preserve">
<style type="text/css">
	.st0{fill:#131911;}
	.st1{font-family:'Courier';}
	.st2{font-size:238.1052px;}
	.st3{fill:#603A13;}
	.st4{fill:#020001;}
	.st5{fill:#E5D8CF;}
	.st6{fill:#E2CBB5;}
	.st7{fill:#FFFFFF;}
	.st8{fill:none;stroke:#AF863E;stroke-width:3;stroke-miterlimit:10;}
</style>
<text transform="matrix(1 0 0 1 79.7957 1782.9062)" class="st0 st1 st2">jasmineSumpter</text>
<g>
	<path class="st3" d="M1024.9,448.2c-3-4.7-35.9-53.9-95.1-55.6c-37.5-1.1-64.5,18-74.8,25.6c-55.1,40.7-64.3,112.9-70.9,164.8
		c-2.6,20.6-7.1,57.7,0,106c12.6,85.9,44.7,93,67,196.4c10.1,46.9,11.9,84.3,0,123.1c-7.1,23.3-25.5,34-20.3,45.2
		c9,19.1,65.1,11.1,90.4,7.5c36.1-5.1,56.4-13,76.2-18.4c71.4-19.5,137.1-7.7,197.8,3.3c64.7,11.7,113.8,31,121,17.5
		c2.5-4.8-1.4-11.4-3.1-14.4c-23.5-42.9,11.2-123.1,19.5-143.7c35.4-88.3,40-221.8,24.6-311.1c-10.4-60.6-22.9-133.7-85.2-186.8
		c-85.9-73.3-199.9-51.8-251.5-42.1c-42.9,8.1-54.8,19.2-57.1,29.2c-1.1,4.6-1.9,16.1,51,69.3c8.7,8.7,31.2,31.4,45.9,43.3
		c42.7,34.5,139.3,75.3,269.3,93.1"/>
	<path class="st4" d="M1082.8,1037.6l-246.1,53.4c-30.4,6.6-50.9,35.1-47.6,66l36.9,344.7c3.4,31.3,30.1,54.9,61.6,54.4l378.4-6.3
		c29.9-0.5,55-22.6,59.3-52.2l48.9-338.8c4.6-31.6-16.1-61.4-47.4-68.2l-244.1-53"/>
	<circle class="st5" cx="1324.3" cy="669.3" r="71.6"/>
	<circle class="st5" cx="835.7" cy="669.3" r="71.6"/>
	<path class="st6" d="M1118.1,1147.4h-70.9c-20.9,0-38-17.1-38-38V857.7c0-20.9,17.1-38,38-38h70.9c20.9,0,38,17.1,38,38v251.6
		C1156.2,1130.2,1139.1,1147.4,1118.1,1147.4z"/>
	<g id="XMLID_2_">
		<g>
			<path class="st6" d="M1329.7,583v203.7l-0.2,0c0.1,2.5,0.2,5,0.2,7.5c0,119.6-110.6,216.5-247,216.5V382.5v0
				c130.3,0,237,88.4,246.4,200.6H1329.7z"/>
			<path class="st5" d="M836.8,577.7c12.2-109.6,117.6-195.2,245.9-195.2v0v628.3c-129.7,0-236-87.6-246.2-198.9l-0.8,0V577.7
				L836.8,577.7z"/>
		</g>
		<g>
		</g>
	</g>
	<path class="st7" d="M991.9,831.9c-0.4,5.9-0.6,26.3,22.2,44.7c5.3,4.3,31.2,25.2,73.8,24.7c34.5-0.4,64.2-14.6,77.5-32.9
		c12.1-16.5,7.5-32.1,5.5-37.6"/>
	<path class="st3" d="M1037.6,441.1c-8.8,20.2-22.4,44.8-43.5,69c-56.9,65.2-130.5,84.2-160.9,90.1"/>
	
		<ellipse transform="matrix(0.8231 -0.5679 0.5679 0.8231 -114.9559 606.1823)" class="st3" cx="915.4" cy="487.6" rx="116" ry="62.2"/>
	
		<ellipse transform="matrix(0.8231 -0.5679 0.5679 0.8231 -177.1983 584.1563)" class="st3" cx="848.9" cy="576.5" rx="31.2" ry="16.3"/>
	<path class="st3" d="M947.2,442.5c14,25.2,42.6,68.5,94.3,103.8c63.2,43.2,129.3,48.3,182.2,53c44.5,3.9,81.4,1.6,106-1.1"/>
	
		<ellipse transform="matrix(0.371 -0.9286 0.9286 0.371 296.1883 1361.947)" class="st3" cx="1153.5" cy="462.3" rx="67.3" ry="188.4"/>
	<ellipse class="st3" cx="1312.5" cy="551.9" rx="29.1" ry="22.2"/>
	<ellipse class="st3" cx="1195.8" cy="410.1" rx="47" ry="32.5"/>
	<g>
		<path class="st8" d="M1041.7,691.6c6.6-19.9,25.2-32.7,44.7-31.5c16,1,30.4,11.4,37.3,26.7"/>
		<path class="st8" d="M1279.9,691.6c0,38.8-35,70.2-78.1,70.2c-43.1,0-78.1-31.4-78.1-70.2c0-38.8,35-60.4,78.1-60.4
			C1245,631.2,1279.9,652.8,1279.9,691.6z"/>
		<path class="st8" d="M1041.7,691.6c0,38.8-35,70.2-78.1,70.2s-78.1-31.4-78.1-70.2c0-38.8,35-60.4,78.1-60.4
			S1041.7,652.8,1041.7,691.6z"/>
	</g>
	
		<ellipse transform="matrix(0.371 -0.9286 0.9286 0.371 270.0463 1395.1187)" class="st3" cx="1164.9" cy="498.2" rx="67.3" ry="188.4"/>
	<ellipse class="st3" cx="1317.5" cy="586.3" rx="19.4" ry="11.4"/>
	<ellipse class="st3" cx="1330.4" cy="589.4" rx="3.1" ry="0.4"/>
	<ellipse class="st3" cx="1327.2" cy="594.6" rx="9.7" ry="3.1"/>
</g>
<rect x="2448.4" y="1985.6" style="fill:none;" width="8.9" height="4.5"/>
</svg>
