<?xml version="1.0" encoding="utf-8"?>
<!-- Generator: Adobe Illustrator 22.1.0, SVG Export Plug-In . SVG Version: 6.00 Build 0)  -->
<svg version="1.1" id="Layer_1" xmlns="http://www.w3.org/2000/svg" xmlns:xlink="http://www.w3.org/1999/xlink" x="0px" y="0px"
	 viewBox="0 0 2160 2160" style="enable-background:new 0 0 2160 2160;" xml:space="preserve">
<style type="text/css">
	.st0{fill:none;}
	.st1{fill:#423C3C;}
	.st2{fill:#FFFFFF;}
	.st3{fill:#D8301E;}
	.st4{fill:#EA7353;}
	.st5{fill:#E84265;}
	.st6{fill:#E094A7;}
	.st7{opacity:0.4;fill:#FFFFFF;}
	.st8{fill:#F4AD2F;}
	.st9{fill:none;stroke:#EAC07D;stroke-width:4;stroke-miterlimit:10;}
</style>
<line class="st0" x1="1355.6" y1="426.1" x2="1433.8" y2="426.1"/>
<path class="st1" d="M1704.1,890.4h-526.7c-5,0-9-4.1-9-9V596.9c0-5,4.1-9,9-9h526.7c5,0,9,4.1,9,9v284.5
	C1713.1,886.4,1709,890.4,1704.1,890.4z"/>
<ellipse class="st2" cx="1439.7" cy="596.8" rx="272.4" ry="137.8"/>
<circle class="st3" cx="1426.4" cy="585.4" r="37.8"/>
<path class="st4" d="M1417.6,558.1c5.4-5,15.9-1.7,21.8,1.9c6.5,4,13.9,12.6,11.5,19.2c-1.2,3.4-4.9,6.4-7.7,5.8
	c-3-0.7-2.6-5.1-7.7-10.9c-1.9-2.1-4.1-4.6-7.7-5.8c-6.3-2-10.7,2.1-12.8,0C1413.2,566.5,1414.5,561,1417.6,558.1z"/>
<circle class="st3" cx="1426.4" cy="642.5" r="37.8"/>
<path class="st4" d="M1417.6,615.2c5.4-5,15.9-1.7,21.8,1.9c6.5,4,13.9,12.6,11.5,19.2c-1.2,3.4-4.9,6.4-7.7,5.8
	c-3-0.7-2.6-5.1-7.7-10.9c-1.9-2.1-4.1-4.6-7.7-5.8c-6.3-2-10.7,2.1-12.8,0C1413.2,623.6,1414.5,618.1,1417.6,615.2z"/>
<circle class="st3" cx="1363.1" cy="623.2" r="38.4"/>
<path class="st4" d="M1354.1,595.4c5.5-5.1,16.2-1.8,22.2,2c6.6,4.1,14.1,12.8,11.7,19.6c-1.2,3.4-5,6.5-7.8,5.9
	c-3.1-0.7-2.6-5.2-7.8-11.1c-1.9-2.1-4.2-4.7-7.8-5.9c-6.4-2.1-10.9,2.2-13,0C1349.7,603.9,1350.9,598.4,1354.1,595.4z"/>
<circle class="st3" cx="1478.8" cy="654.2" r="37.8"/>
<path class="st4" d="M1470.1,626.9c5.4-5,15.9-1.7,21.8,1.9c6.5,4,13.9,12.6,11.5,19.2c-1.2,3.4-4.9,6.4-7.7,5.8
	c-3-0.7-2.6-5.1-7.7-10.9c-1.9-2.1-4.1-4.6-7.7-5.8c-6.3-2-10.7,2.1-12.8,0C1465.7,635.3,1466.9,629.8,1470.1,626.9z"/>
<circle class="st3" cx="1479.6" cy="543" r="37.8"/>
<path class="st4" d="M1470.8,515.7c5.4-5,15.9-1.7,21.8,1.9c6.5,4,13.9,12.6,11.5,19.2c-1.2,3.4-4.9,6.4-7.7,5.8
	c-3-0.7-2.6-5.1-7.7-10.9c-1.9-2.1-4.1-4.6-7.7-5.8c-6.3-2-10.7,2.1-12.8,0C1466.4,524,1467.6,518.6,1470.8,515.7z"/>
<circle class="st3" cx="1479.6" cy="600.1" r="37.8"/>
<path class="st4" d="M1470.8,572.8c5.4-5,15.9-1.7,21.8,1.9c6.5,4,13.9,12.6,11.5,19.2c-1.2,3.4-4.9,6.4-7.7,5.8
	c-3-0.7-2.6-5.1-7.7-10.9c-1.9-2.1-4.1-4.6-7.7-5.8c-6.3-2-10.7,2.1-12.8,0C1466.4,581.1,1467.6,575.7,1470.8,572.8z"/>
<circle class="st3" cx="1426.4" cy="573.3" r="38.4"/>
<path class="st4" d="M1417.4,545.6c5.5-5.1,16.2-1.8,22.2,2c6.6,4.1,14.1,12.8,11.7,19.6c-1.2,3.4-5,6.5-7.8,5.9
	c-3.1-0.7-2.6-5.2-7.8-11.1c-1.9-2.1-4.2-4.7-7.8-5.9c-6.4-2.1-10.9,2.2-13,0C1413,554.1,1414.2,548.5,1417.4,545.6z"/>
<circle class="st3" cx="1532" cy="611.8" r="37.8"/>
<path class="st4" d="M1523.2,584.5c5.4-5,15.9-1.7,21.8,1.9c6.5,4,13.9,12.6,11.5,19.2c-1.2,3.4-4.9,6.4-7.7,5.8
	c-3-0.7-2.6-5.1-7.7-10.9c-1.9-2.1-4.1-4.6-7.7-5.8c-6.3-2-10.7,2.1-12.8,0C1518.8,592.8,1520,587.4,1523.2,584.5z"/>
<circle class="st3" cx="1532" cy="642.5" r="37.8"/>
<path class="st4" d="M1523.2,615.2c5.4-5,15.9-1.7,21.8,1.9c6.5,4,13.9,12.6,11.5,19.2c-1.2,3.4-4.9,6.4-7.7,5.8
	c-3-0.7-2.6-5.1-7.7-10.9c-1.9-2.1-4.1-4.6-7.7-5.8c-6.3-2-10.7,2.1-12.8,0C1518.8,623.6,1520,618.1,1523.2,615.2z"/>
<circle class="st3" cx="1538.4" cy="565.9" r="37.8"/>
<path class="st4" d="M1529.6,538.6c5.4-5,15.9-1.7,21.8,1.9c6.5,4,13.9,12.6,11.5,19.2c-1.2,3.4-4.9,6.4-7.7,5.8
	c-3-0.7-2.6-5.1-7.7-10.9c-1.9-2.1-4.1-4.6-7.7-5.8c-6.3-2-10.7,2.1-12.8,0C1525.2,547,1526.4,541.5,1529.6,538.6z"/>
<circle class="st3" cx="1426.4" cy="520.2" r="38.4"/>
<path class="st4" d="M1417.4,492.4c5.5-5.1,16.2-1.8,22.2,2c6.6,4.1,14.1,12.8,11.7,19.6c-1.2,3.4-5,6.5-7.8,5.9
	c-3.1-0.7-2.6-5.2-7.8-11.1c-1.9-2.1-4.2-4.7-7.8-5.9c-6.4-2.1-10.9,2.2-13,0C1413,501,1414.2,495.4,1417.4,492.4z"/>
<circle class="st3" cx="1371.7" cy="558" r="37.8"/>
<path class="st4" d="M1362.9,530.7c5.4-5,15.9-1.7,21.8,1.9c6.5,4,13.9,12.6,11.5,19.2c-1.2,3.4-4.9,6.4-7.7,5.8
	c-3-0.7-2.6-5.1-7.7-10.9c-1.9-2.1-4.1-4.6-7.7-5.8c-6.3-2-10.7,2.1-12.8,0C1358.5,539.1,1359.7,533.6,1362.9,530.7z"/>
<g>
	<path class="st2" d="M922,1218.5L419,946.1c-72.8-39.4-100.1-131.2-60.7-204s131.2-100.1,204-60.7l503,272.4
		c72.8,39.4,100.1,131.2,60.7,204S994.7,1257.9,922,1218.5z"/>
	<path class="st5" d="M260.2,792.8c132.9-46.9,283.4,41.6,370.6,92.8c194.6,114.4,287.4,257.6,456.8,312.2
		c23.1,7.4,63.9,18.5,97.7-1c47.3-27.4,61.5-103.2,51.8-155.4c-9.2-49.5-42.9-101.2-287.3-236.6
		C751.4,694.9,649.9,640.7,551.7,643.1c-134.6,3.4-239.6,65.8-274.6,88.7c-43.2,28.2-99.7,74.5-94,84
		C187.8,823.7,234.5,801.9,260.2,792.8z"/>
	<path class="st5" d="M714.6,819.3"/>
	<path class="st6" d="M1152.5,930.7c-2.9,24-22.8,67.3-35.6,107c-22.7,70.2-62.4,117.5-79,140.8l-11.9-5.5
		c16.6-23.2,55.1-68,78.6-137.9c26-77.2,34.3-89.5,36.9-112.5L1152.5,930.7z"/>
	<path class="st6" d="M1113.5,903.2c-2.9,24-23.2,68.1-36,107.8c-22.7,70.2-65.1,120.9-81.7,144.2l-10.6-6.3
		c16.6-23.2,56.5-70.5,80-140.5c26-77.2,35.1-89.3,37.6-112.3L1113.5,903.2z"/>
	<path class="st6" d="M1074.2,877.6c-2.9,24-25,71.5-37.8,111.1c-22.7,70.2-63.5,119.5-80.1,142.8l-10.8-7.5
		c16.6-23.2,55.1-68,78.6-137.9c26-77.2,36-92.7,38.6-115.7L1074.2,877.6z"/>
	<path class="st6" d="M1036.1,854.4c-2.9,24-23.2,68.1-36,107.8c-22.7,70.2-64.5,119.1-81.1,142.3l-9.8-7
		c16.6-23.2,55.1-68,78.6-137.9c26-77.2,34.6-88.9,37.2-111.9L1036.1,854.4z"/>
	<path class="st6" d="M997.5,831.6c-2.9,24-24,69.5-36.8,109.2c-22.7,70.2-59,113.5-75.6,136.8l-10.2-8.4
		c16.6-23.2,50-61.1,73.6-131c26-77.2,34.8-90.4,37.3-113.3L997.5,831.6z"/>
	<path class="st6" d="M959.8,810.3c-2.9,24-19.8,52.3-32.6,91.9c-22.7,70.2-63.9,120.3-80.5,143.5l-10.4-8.3
		c16.6-23.2,55.1-68,78.6-137.9c26-77.2,31.1-72.5,33.7-95.5L959.8,810.3z"/>
	<path class="st6" d="M925.9,791.5c-2.9,24-15.6,46.1-28.4,85.8c-22.7,70.2-64.9,119.6-81.5,142.8l-9.4-7.5
		c16.6-23.2,55.1-68,78.6-137.9c26-77.2,28.2-65.6,30.8-88.6L925.9,791.5z"/>
	<path class="st6" d="M887.2,770.3c-2.9,24-13.5,38-26.3,77.6c-22.7,70.2-64.2,119.5-80.9,142.7l-10.1-7.4
		c16.6-23.2,55.1-68,78.6-137.9c26-77.2,26.1-57.4,28.7-80.4L887.2,770.3z"/>
	<path class="st6" d="M839.1,744.1c-2.9,24-21.4,61-34.2,100.6c-22.7,70.2-45.1,93.7-61.7,116.9l-10-7.6
		c16.6-23.2,35.9-42.1,59.4-112c26-77.2,33.2-80.8,35.8-103.8L839.1,744.1z"/>
	<path class="st6" d="M800.4,723.2c-2.9,24-17.4,52.3-30.2,91.9c-22.7,70.2-47,96.4-63.6,119.6l-10.3-7.2
		c16.6-23.2,38.1-45.1,61.7-115c26-77.2,30.5-70.5,33.1-93.5L800.4,723.2z"/>
	<path class="st6" d="M769.1,707.9c-2.9,24-8.4,18.8-21.2,58.5c-22.7,70.2-63.2,119-79.8,142.2l-11.1-6.9
		c16.6-23.2,55.2-67.9,78.6-137.9c25.7-76.9,18.7-38,21.8-61.6L769.1,707.9z"/>
	<path class="st6" d="M719.2,684.4c-2.9,24-16.8,42.4-29.6,82c-22.7,70.2-45.3,94.1-61.9,117.3l-10.9-6.4
		c16.6-23.2,37-43.6,60.6-113.5c26-77.2,27.6-61.5,30.1-84.5L719.2,684.4z"/>
	<path class="st6" d="M690.1,672.3c-2.9,24-5.1,10-17.9,49.7c-22.7,70.2-62.8,118.3-79.5,141.6l-11.5-6.3
		c16.6-23.2,55.1-68,78.6-137.9c26-77.2,15.6-28.7,18.1-51.7L690.1,672.3z"/>
	<path class="st6" d="M636.3,654.2c-2.9,24-14.1,34.6-26.9,74.3c-22.7,70.2-62.5,117.7-58.9,112.2l-11.8-5.6
		c-3.6,5.5,34.9-39.2,58.4-109.2c26-77.2,24.1-51.8,26.6-74.8L636.3,654.2z"/>
	<path class="st6" d="M596.5,645.6c-3.5,7.1,1.8-4.8-11,34.9c-22.7,70.2-61.8,116.3-78.4,139.6l-12.5-4.3
		c16.6-23.2,54.3-68.2,78.6-137.9c22.1-63.4,4.8-14.3,11.6-33.5L596.5,645.6z"/>
	<path class="st6" d="M543.4,641.8c-3.2,6.5,1-3.1-10.7,33.1C512,739,476.5,781.2,461.5,802.4l-11.3-3.9
		c15.1-21.2,49.3-62.4,71.5-126c20.2-57.9,4.4-13,10.6-30.5L543.4,641.8z"/>
	<path class="st6" d="M453.2,655.9c-2.8,5.2,0.7,1.5-8.8,31.1c-16.7,52.4-46.4,78.9-59.9,95.8l-10-1.3
		c13.6-16.9,40.8-45.2,58.9-97.1c16.6-47.2,3.4-11.3,8.5-25.5L453.2,655.9z"/>
	<path class="st6" d="M493.1,648.4c-2.8,5.2,0.7,1.5-8.8,31.1c-16.7,52.4-51.1,93.2-64.6,110.1l-13.9-3.1
		c13.6-16.9,49.4-57.7,67.5-109.6c16.6-47.2,3.5-12.5,8.6-26.8L493.1,648.4z"/>
	<path class="st1" d="M774.8,710c31.8,52.5,38.4,93.8,38.6,116.2c1.2,116.2-90,190.9-108.5,206c-33.5,27.4-55.8,18.4-78,26.5
		L778,1144c22.2-8.1,55.3-23,88.9-50.4c18.4-15.1,109.7-89.8,108.5-206c-0.2-22.4-16.7-45.5-48.5-98L774.8,710z"/>
	<path class="st7" d="M494,688.9c24.2-33.6,85.6-27.7,122.2-14.4c40.4,14.7,90.9,53.3,85.5,92.6c-2.7,19.9-19.9,40.7-35.7,40.6
		c-17.3-0.2-20-25.4-54.8-51.2c-12.7-9.4-28-20.7-49-22.9c-36.9-4-56.7,24-70.6,14.7C479.4,740.1,479.8,708.5,494,688.9z"/>
</g>
<g>
	<path class="st2" d="M1971.5,1250.4l-485,303.3c-70.2,43.9-163.5,22.4-207.4-47.8c-43.9-70.2-22.4-163.5,47.8-207.4l485-303.3
		c70.2-43.9,163.5-22.4,207.4,47.8S2041.7,1206.5,1971.5,1250.4z"/>
	<path class="st8" d="M1982.6,936.5l-766.3,479.2c-9.4,5.9-21.1,4.3-26-3.5l-41.4-66.2c-4.9-7.8-1.1-19,8.3-24.9l766.3-479.2
		c31.5-19.7,40,4.6,56.2,30.6C1996,898.5,2014.1,916.8,1982.6,936.5z"/>
	<path class="st9" d="M1163,1368.6c24.6-18.5,35.5-14.8,72.4-33.8c45.3-23.3,44.2-36.9,101.6-72.6c36-22.4,54-33.6,78.9-40
		c37.6-9.6,57.1-1.1,89.5-18.3c18.4-9.7,29.3-21.6,37.3-29.8c16.3-16.7,115.3-118.2,222.7-155.5c34.2-11.9,54.3-12.1,79.2-33.1
		c24.8-20.8,25.8-38.1,49.5-62.8c15.2-15.8,40.8-35.8,85.5-50.2"/>
	<path class="st1" d="M1459.3,1132.1c61.3-1.8,97.8,8.4,117.4,19.3c101.7,56.2,121.7,172.5,125.7,196c7.3,42.7-11.5,57.6-15.5,80.9
		l148.7-89.4c3.9-23.3,7.3-59.5,0-102.1c-4-23.5-24-139.7-125.7-196c-19.6-10.8-41.7-6.5-103-4.7L1459.3,1132.1z"/>
</g>
</svg>
