<?xml version="1.0" encoding="utf-8"?>
<!-- Generator: Adobe Illustrator 22.1.0, SVG Export Plug-In . SVG Version: 6.00 Build 0)  -->
<svg version="1.1" id="Layer_1" xmlns="http://www.w3.org/2000/svg" xmlns:xlink="http://www.w3.org/1999/xlink" x="0px" y="0px"
	 viewBox="0 0 2160 2160" style="enable-background:new 0 0 2160 2160;" xml:space="preserve">
<style type="text/css">
	.st0{fill:#131911;}
	.st1{font-family:'Courier';}
	.st2{font-size:325.7317px;}
	.st3{fill:#070707;}
	.st4{fill:#C90932;}
	.st5{fill:#E5D8CF;}
	.st6{fill:#E2CBB5;}
	.st7{fill:#FFFFFF;}
	.st8{fill:none;stroke:#DBA900;stroke-miterlimit:10;}
	.st9{fill:none;stroke:#211D12;stroke-miterlimit:10;}
</style>
<text transform="matrix(1 0 0 1 200.3815 1793.0859)" class="st0 st1 st2">lydiaChan</text>
<g>
	<path class="st3" d="M1000.1,299.4c10.3-8.1,20.7-14.5,31-19.4c90.8-44.1,212.9-6.9,288.6,58.3c65.6,56.5,88.2,126.7,98.5,160.5
		c22.9,74.4,16.3,135.3,5.2,229.7c-14.7,124.5-38.1,149.2-43.8,243.8c-6.7,111.3,22,206.9,22,206.9c21.9,86.6,51.7,136.1,25.4,174.9
		c-8.5,12.5-29.4,21.5-70.9,38.8c-59.7,25-98.6,41.3-145.1,42.2c-46.7,0.9-56.2-14.5-118.1-30.4c-141.2-36.1-215.8,12.5-249.7-33.7
		c-16.5-22.6-13-53.7-6.7-108c6.2-53.9,18.5-49.8,23.5-100.4c6.1-61.4-7-116.9-12.9-141.5c-3.8-16-7.8-29.4-10.1-36.8
		c-14.3-47.4-29.6-80.2-33.3-88.6c-27.6-62.1-29.2-151.5-30.5-228.3c-1.5-83.3-2.2-126.2,14.5-184.9c9.1-32,27.1-92.6,78.8-147.9
		c26.2-28.1,82.8-88.6,127-70.7c33.8,13.7,52.3,70,42.4,135"/>
	<path class="st4" d="M1086.3,965.3L838.7,1019c-30.6,6.6-51.3,35.3-47.9,66.4l37.2,346.7c3.4,31.5,30.2,55.2,61.9,54.7l380.7-6.3
		c30.1-0.5,55.3-22.7,59.6-52.5l49.2-340.8c4.6-31.8-16.2-61.8-47.6-68.6l-245.6-53.3"/>
	<circle class="st5" cx="1329.3" cy="597.3" r="72"/>
	<circle class="st5" cx="837.8" cy="597.3" r="72"/>
	<path class="st3" d="M1000.4,302.4c2.8,26.5,11,62.5,35.5,96.6c39.6,55.2,100.3,75.3,169.3,98.2c31.9,10.5,73.7,21.6,124.2,28"/>
	<path class="st6" d="M1119.6,1075.7h-66.6c-22.3,0-40.6-18.3-40.6-40.6V786.6c0-22.3,18.3-40.6,40.6-40.6h66.6
		c22.3,0,40.6,18.3,40.6,40.6v248.5C1160.2,1057.4,1141.9,1075.7,1119.6,1075.7z"/>
	<g id="XMLID_1_">
		<g>
			<path class="st6" d="M1334.8,508v204.9h-0.2c0.1,2.5,0.2,5.1,0.2,7.6c0,120.3-111.2,217.8-248.5,217.8v-632
				c131.1,0,238.4,89,247.8,201.8H1334.8z"/>
			<path class="st5" d="M1086.3,306.3v632c-130.4,0-237.4-88.1-247.7-200.1l-0.8,0V502.6l1.2,0
				C851.2,392.4,957.3,306.3,1086.3,306.3z"/>
		</g>
		<g>
		</g>
	</g>
	<path class="st7" d="M995,758.3c-0.4,5.9-0.6,26.4,22.3,44.9c5.4,4.3,31.3,25.4,74.3,24.8c34.7-0.4,64.6-14.7,78-33.1
		c12.1-16.6,7.6-32.3,5.6-37.8"/>
	<path class="st3" d="M1048.2,374.3c-1,14.4-6.6,68.2-50.8,110.4c-64.6,61.7-152.8,42.3-159.7,40.6"/>
	
		<ellipse transform="matrix(0.4357 -0.9001 0.9001 0.4357 303.8419 1328.9873)" class="st3" cx="1211.8" cy="422.2" rx="65.9" ry="193.5"/>
	
		<ellipse transform="matrix(0.4357 -0.9001 0.9001 0.4357 320.3985 1296.0042)" class="st3" cx="1193.8" cy="392.5" rx="65.9" ry="193.5"/>
	<path class="st3" d="M1075.2,326.7c-22.9-34.3-102-21.8-176.8,28s-116.9,118-94,152.3c22.9,34.3,89.6,9.4,164.4-40.4
		S1098,361,1075.2,326.7z"/>
	<g>
		<path class="st8" d="M1045,615.9c6.6-20,25.4-32.9,44.9-31.7c16.1,1,30.6,11.4,37.5,26.8"/>
		<path class="st9" d="M1284.7,615.9c0,39-35.2,70.6-78.6,70.6s-78.6-31.6-78.6-70.6c0-39,35.2-60.7,78.6-60.7
			S1284.7,576.9,1284.7,615.9z"/>
		<path class="st9" d="M1045,615.9c0,39-35.2,70.6-78.6,70.6s-78.6-31.6-78.6-70.6c0-39,35.2-60.7,78.6-60.7S1045,576.9,1045,615.9z
			"/>
	</g>
</g>
</svg>
