<?xml version="1.0" encoding="utf-8"?>
<!-- Generator: Adobe Illustrator 22.1.0, SVG Export Plug-In . SVG Version: 6.00 Build 0)  -->
<svg version="1.1" id="Layer_1" xmlns="http://www.w3.org/2000/svg" xmlns:xlink="http://www.w3.org/1999/xlink" x="0px" y="0px"
	 viewBox="0 0 2160 2160" style="enable-background:new 0 0 2160 2160;" xml:space="preserve">
<style type="text/css">
	.st0{fill:#131911;}
	.st1{font-family:'Courier';}
	.st2{font-size:293.7726px;}
	.st3{fill:#1A2D72;}
	.st4{fill:#E5D8CF;}
	.st5{fill:#E2CBB5;}
	.st6{fill:#02050C;}
	.st7{fill:#FFFFFF;}
</style>
<text transform="matrix(1 0 0 1 110.5386 1826.8545)" class="st0 st1 st2">matthewTran</text>
<g>
	<path class="st3" d="M1291.4,1568.9H874.2c-42.8,0-77.6-34.7-77.6-77.6v-417.2c0-42.8,34.7-77.6,77.6-77.6h417.2
		c42.8,0,77.6,34.7,77.6,77.6v417.2C1369,1534.2,1334.2,1568.9,1291.4,1568.9z"/>
	<circle class="st4" cx="1332.2" cy="575.3" r="73.9"/>
	<circle class="st4" cx="827.8" cy="575.3" r="73.9"/>
	<path class="st5" d="M1134.5,1066.1h-103.5c-13.3,0-24.1-10.8-24.1-24.1V752c0-13.3,10.8-24.1,24.1-24.1h103.5
		c13.3,0,24.1,10.8,24.1,24.1v290C1158.6,1055.3,1147.8,1066.1,1134.5,1066.1z"/>
	<g id="XMLID_3_">
		<g>
			<path class="st5" d="M1337.8,483.7v210.2h-0.2c0.1,2.6,0.2,5.2,0.2,7.8c0,123.4-114.2,223.5-255,223.5V276.7
				c134.5,0,244.6,91.3,254.3,207H1337.8z"/>
			<path class="st4" d="M1082.8,276.7v648.5c-133.8,0-243.6-90.4-254.1-205.3l-0.8,0V478.2l1.2,0
				C841.7,365.1,950.4,276.7,1082.8,276.7z"/>
		</g>
		<g>
		</g>
	</g>
	<path class="st6" d="M1334.6,590h-4.5c-0.6,0-1.1-0.5-1.1-1.1V478.1c0-0.6,0.5-1.1,1.1-1.1h4.5c0.6,0,1.1,0.5,1.1,1.1v110.8
		C1335.7,589.5,1335.2,590,1334.6,590z"/>
	<path class="st6" d="M835.5,590H831c-0.6,0-1.1-0.5-1.1-1.1V478.1c0-0.6,0.5-1.1,1.1-1.1h4.5c0.6,0,1.1,0.5,1.1,1.1v110.8
		C836.6,589.5,836.1,590,835.5,590z"/>
	<path class="st6" d="M850.4,524.2c-12.4,0-22.6-10.2-22.6-22.6v-31.2c0-12.4,10.2-22.6,22.6-22.6c12.4,0,22.6,10.2,22.6,22.6v31.2
		C873,514,862.8,524.2,850.4,524.2z"/>
	<path class="st6" d="M1316.1,524.2c-12.4,0-22.6-10.2-22.6-22.6v-31.2c0-12.4,10.2-22.6,22.6-22.6s22.6,10.2,22.6,22.6v31.2
		C1338.7,514,1328.5,524.2,1316.1,524.2z"/>
	<path class="st6" d="M1331,492.3c-71.2-161.5-179.4-267.8-260.2-257c-22.7,3-68.4,18.6-108.7,38.8c-33.1,16.5-56.1,28.4-79.2,53.6
		c-35.3,38.6-45,80.6-48.9,98.6c-6.9,31.6-9.4,76,1.6,79.2c8.7,2.6,20-22.8,35.9-42.5c43.6-53.9,118.5-60.4,174.2-65.3
		c100-8.8,222.7,19.7,256,71.7c3.5,5.5,13.4,22.8,22.2,21.1c9.7-1.8,14.4-25.7,13.7-43.7c-1-24.2-12.1-42.3-19.1-52.8
		c-34.7-51.9-76.9-85.5-99.2-102c-8.1-5.9-21.8-15.7-36.4-25.5c-16.8-11.3-43.3-15.1-53.2-21.2"/>
	<path class="st7" d="M999.9,766.2c-0.3,5.4-0.5,24,20.2,40.8c4.9,3.9,28.4,23,67.4,22.5c31.5-0.4,58.6-13.4,70.8-30.1
		c11-15.1,6.9-29.3,5.1-34.4"/>
</g>
</svg>
