<?xml version="1.0" encoding="utf-8"?>
<!-- Generator: Adobe Illustrator 22.1.0, SVG Export Plug-In . SVG Version: 6.00 Build 0)  -->
<svg version="1.1" id="Layer_1" xmlns="http://www.w3.org/2000/svg" xmlns:xlink="http://www.w3.org/1999/xlink" x="0px" y="0px"
	 viewBox="0 0 2160 2160" style="enable-background:new 0 0 2160 2160;" xml:space="preserve">
<style type="text/css">
	.st0{fill:#BAD868;stroke:#ECECEC;stroke-miterlimit:10;}
	.st1{fill:#69965A;}
	.st2{fill:none;}
	.st3{fill:#ECECEC;}
	.st4{fill:#131911;}
	.st5{font-family:'Banana';}
	.st6{font-size:560.2928px;}
</style>
<g>
	<path class="st0" d="M1143.2,1037.7c-33.4,20.8-87.3-1.5-114.2-20.5c-42.4-30-53.7-77.1-67.3-134.3c-4.3-18.1-23-100.8-6.1-217.7
		c10-69.2,20.5-68,23.3-122.7c3.9-76.4-13.6-137.2-23-164.8c-29.2-85.8-76.6-136.3-72.1-139.7c4-3,43.6,37.9,81.4,89.8
		c61.9,85.1,92,162.7,100.9,186.3C1094.4,589.4,1240.9,976.8,1143.2,1037.7z"/>
	<path class="st1" d="M1043.5,958.6c-5.8,0-14.2-4.8-22.5-76.2c-7.8-66.3-12.2-103.9-4.7-160.6c7.1-54.2,15.9-56.4,18.5-104.9
		c0.8-15.3,2-52.1-6.5-97.7c-5.3-28.9-13.7-52.4-30.2-98.1c-22.3-62-37.8-95.5-37.2-95.7c1.1-0.4,56.3,120.1,109.2,269.1
		c0,0,19.7,55.4,35.3,135.5c13.5,69.1,14.2,107.2-2.8,150.2C1088.9,914.6,1061.3,958.7,1043.5,958.6z"/>
	<rect x="591.4" y="867.7" class="st2" width="0" height="10.6"/>
	<path class="st0" d="M1117.2,1042.8c-45.7-4.6-76.5-120.7-52.9-223.4c17-74.1,53.5-102.5,94.1-169.2
		C1277,455,1223.6,273,1240.7,272.7c14.7-0.2,30.9,136.3,38.2,240.8c16,228.5-9.8,307-20.6,336.2
		C1230.5,925.4,1166,1047.6,1117.2,1042.8z"/>
	<path class="st1" d="M1121.2,990.4c-5.5-2-11.8-9.2,3.7-79.4c14.4-65.2,22.6-102.1,48.2-153.2c24.5-48.8,33.5-48.1,51.9-93
		c5.8-14.2,18.9-48.6,26-94.4c4.5-29.1,4.3-54,3.7-102.6c-0.8-65.9-4.3-102.6-3.7-102.6c1.2-0.1,13.8,131.9,14.8,290.1
		c0,0,0.4,58.8-11.1,139.6c-9.9,69.7-21.8,105.9-51.9,140.9C1178.5,963.8,1138,996.4,1121.2,990.4z"/>
	<path class="st0" d="M1169.9,1022.8c5-60-152.9-83.3-276.3-162.7C678.1,721.5,688.8,489.9,664.4,493.5
		c-21.5,3.2,12.5,177.6,26.5,249.5c30.2,155.3,52.9,199.6,88.2,240.8c28.1,32.7,85.9,98,188.1,115c22.1,3.7,85.3,14.1,141.1-13
		C1114.9,1082.4,1167.2,1056.4,1169.9,1022.8z"/>
	<path class="st1" d="M1055.8,1083.2c-154.5-9.4-220.1-61.6-240.3-80c-30.5-27.8-44.6-64.4-72.7-137.5
		c-5.6-14.7-18.8-63.5-45.2-161.2c-8.2-30.2-14.4-53.5-10.7-54.3c7.5-1.6,29.6,98.8,125.8,197c51.9,53,77.8,79.4,128.5,98.5
		c46.8,17.6,95.8,22.2,123,55.4c14.1,17.2,16.7,35.1,16.8,47.2"/>
	<path class="st0" d="M1084.4,1048.1c34.8-9.5,25.1-77.2,24.3-82.1c-11-71-77.4-103.6-123-147.1c-127.5-121.5-36.9-275.1-63.6-275.4
		c-25.2-0.3-117,135.7-75.1,276.9C886.1,952,1033.5,1062.1,1084.4,1048.1z"/>
	<path class="st1" d="M1021.6,988.5c19.5-4.2,34.7-20.4,33.3-39.3c-2.1-27.4-37.8-38.5-85.4-86.1c-10-10-71.3-72.4-87.2-148.9
		c-1.5-7.1-4.5-23.5-4-44c1.2-51.3,23.3-84.3,24.4-83.9c1.3,0.6-37.7,56-38,144.3c-0.1,29.6,4.5,52.5,13.6,98.3
		c16.9,84.9,33.9,104.6,42.4,113.4C942.6,965.1,987.2,995.8,1021.6,988.5z"/>
	<path class="st0" d="M1041.2,1036.6c-25.4-54.6,114.7-131,203.1-248.1c154.4-204.5,64.5-418.2,88.5-423.2
		c21.3-4.4,49.6,170.9,61.3,243.2c25.3,156.2,19.3,205.6,0.4,256.4c-15,40.4-46.7,121.7-136.8,172.9
		c-19.5,11.1-75.2,42.7-136.9,36.5C1113.4,1073.5,1055.4,1067.1,1041.2,1036.6z"/>
	<path class="st1" d="M1169.2,1053.8c141.7-62.1,185.3-133.9,197.9-158.1c19-36.6,19.6-75.8,20.7-154.1
		c0.2-15.7-4.3-66.1-13.3-166.9c-2.8-31.2-5-55.2-8.7-54.7c-7.6,1.1,6.4,102.9-50,228.3c-30.4,67.6-45.6,101.4-86.6,136.8
		c-37.8,32.7-82.2,53.9-96.3,94.5c-7.3,21-3.5,38.7,0.6,50.1"/>
	<path class="st0" d="M1117.8,1091.8c-27.7-23.1,9.3-80.6,12.1-84.8c39.5-60,113.5-62,173-82.6c166.5-57.5,148-234.7,172.5-223.9
		c23,10.2,49.9,172.1-46.9,283C1338.2,1086.9,1158.3,1125.7,1117.8,1091.8z"/>
	<path class="st1" d="M1199.8,1063.7c-16-11.9-23.1-33-13.9-49.6c13.3-24.1,50.4-19.3,113.5-42.7c13.3-4.9,94.9-36.1,141.3-99.1
		c4.3-5.8,13.9-19.5,22-38.4c20.3-47.2,13.9-86.4,12.8-86.4c-1.5,0,11,66.6-25.5,147c-12.2,26.9-25.9,45.9-53.3,83.8
		c-50.7,70.2-74.4,81-85.7,85.5C1281.3,1075.3,1227.9,1084.7,1199.8,1063.7z"/>
</g>
<path class="st3" d="M1981.8,1610.9H221.6c-6.6,0-12-5.4-12-12v-514.9c0-6.6,5.4-12,12-12h1760.1c6.6,0,12,5.4,12,12v514.9
	C1993.8,1605.5,1988.4,1610.9,1981.8,1610.9z"/>
<text transform="matrix(1 0 0 1 600.0542 1497.7316)" class="st4 st5 st6">allo</text>
</svg>
