<?xml version="1.0" encoding="utf-8"?>
<!-- Generator: Adobe Illustrator 22.1.0, SVG Export Plug-In . SVG Version: 6.00 Build 0)  -->
<svg version="1.1" id="Layer_1" xmlns="http://www.w3.org/2000/svg" xmlns:xlink="http://www.w3.org/1999/xlink" x="0px" y="0px"
	 viewBox="0 0 2160 2160" style="enable-background:new 0 0 2160 2160;" xml:space="preserve">
<style type="text/css">
	.st0{fill:#FDF401;}
	.st1{opacity:0.4;}
	.st2{fill:#8FA0C1;}
</style>
<g>
	<path class="st0" d="M1496.3,929.6c15-9.8,29.8-19.7,45-29.1c4.8-3,6.8-6.2,6.9-12c0.1-14.4,1.2-28.7,1.7-43.1
		c0.2-5.3,0.9-10.4,6.5-12.4c5-1.8,9.6-0.8,14,2.9c11,9.3,22.6,17.8,33.2,27.5c5.1,4.6,9.4,4.9,15.4,3.1
		c13.3-4.1,26.9-7.6,40.3-11.5c5.1-1.5,10.1-1.8,14.1,2.2c4.5,4.5,3.5,9.8,1.5,15c-5.3,13.3-10.4,26.7-16,39.9
		c-2.2,5.1-2.1,9,1.3,13.8c8.5,12,16.6,24.4,24.4,36.8c6.8,10.8,2.1,19.3-10.6,19c-14.7-0.4-29.4-1.3-44.1-2.4
		c-5.6-0.4-9.4,1.4-12.9,5.8c-8.8,11.4-18,22.4-26.9,33.7c-3.6,4.5-7.8,7.4-13.9,6c-5.9-1.4-7.4-6.2-8.7-11.2
		c-3.6-13.5-7.4-27-10.5-40.6c-1.3-5.9-3.8-9.2-9.8-11.2c-13.3-4.4-26.1-9.9-39.3-14.7c-4.9-1.8-9-4.1-11.5-8.8
		C1496.3,935.3,1496.3,932.4,1496.3,929.6z"/>
	<path class="st0" d="M898.1,603.1c15-9.8,29.8-19.7,45-29.1c4.8-3,6.8-6.2,6.9-12c0.1-14.4,1.2-28.7,1.7-43.1
		c0.2-5.3,0.9-10.4,6.5-12.4c5-1.8,9.6-0.8,14,2.9c11,9.3,22.6,17.8,33.2,27.5c5.1,4.6,9.4,4.9,15.4,3.1
		c13.3-4.1,26.9-7.6,40.3-11.5c5.1-1.5,10.1-1.8,14.1,2.2c4.5,4.5,3.5,9.8,1.5,15c-5.3,13.3-10.4,26.7-16,39.9
		c-2.2,5.1-2.1,9,1.3,13.8c8.5,12,16.6,24.4,24.4,36.8c6.8,10.8,2.1,19.3-10.6,19c-14.7-0.4-29.4-1.3-44.1-2.4
		c-5.6-0.4-9.4,1.4-12.9,5.8c-8.8,11.4-18,22.4-26.9,33.7c-3.6,4.5-7.8,7.4-13.9,6c-5.9-1.4-7.4-6.2-8.7-11.2
		c-3.6-13.5-7.4-27-10.5-40.6c-1.3-5.9-3.8-9.2-9.8-11.2c-13.3-4.4-26.1-9.9-39.3-14.7c-4.9-1.8-9-4.1-11.5-8.8
		C898.1,608.8,898.1,606,898.1,603.1z"/>
	<g class="st1">
		
			<ellipse transform="matrix(7.298969e-02 -0.9973 0.9973 7.298969e-02 -53.1606 2371.7161)" class="st2" cx="1249.2" cy="1214.5" rx="216.7" ry="205.4"/>
		
			<ellipse transform="matrix(7.298969e-02 -0.9973 0.9973 7.298969e-02 -195.9931 1956.3604)" class="st2" cx="954.4" cy="1083.6" rx="263.4" ry="249.7"/>
		
			<ellipse transform="matrix(7.298969e-02 -0.9973 0.9973 7.298969e-02 -255.2219 2146.8372)" class="st2" cx="1027.2" cy="1210.7" rx="263.4" ry="249.7"/>
		
			<ellipse transform="matrix(7.298969e-02 -0.9973 0.9973 7.298969e-02 -219.7014 1488.7816)" class="st2" cx="691" cy="862.6" rx="183.8" ry="174.2"/>
		
			<ellipse transform="matrix(7.298969e-02 -0.9973 0.9973 7.298969e-02 -667.4058 1605.5985)" class="st2" cx="530" cy="1161.8" rx="263.4" ry="249.7"/>
		
			<ellipse transform="matrix(7.298969e-02 -0.9973 0.9973 7.298969e-02 -524.4752 1783.8689)" class="st2" cx="697.4" cy="1174.1" rx="295.1" ry="279.8"/>
	</g>
	<path class="st0" d="M845.7,1434.6c-16.7-12.4-37.6-10.4-56.3-15.5c-111.1-30.2-202.6-90.1-275.2-179.2
		c-10.1-12.4-19.5-25.5-7.5-41.1c11.6-15,26-8.4,39.6-2.1c136.7,62.6,273.4,60.8,405.6-9.2c139.8-74,221.4-193.6,249-348.9
		c25.1-141.4-4-271.3-86.7-389.1c-16.4-23.4-15.2-31.4,3.9-49.1c6.2,0,12.3,0,18.5,0c0.9,1.2,1.5,2.8,2.6,3.4
		c144.1,76.1,232.5,195.6,275.1,351.3c7.2,26.2,6.6,54.1,17.8,79.3c0,4.6,0,9.2,0,13.9c-5.4,6.2-2.3,12.3,0,18.5
		c0,29.2,0,58.5,0,87.7c-10.9,17.4-8.6,38-13.5,56.9c-53.1,205.8-176.2,345.4-382.3,407.5c-21.7,6.5-45.1,5.8-65.9,15.9
		C928.8,1434.6,887.2,1434.6,845.7,1434.6z"/>
	<g class="st1">
		<circle class="st2" cx="1040.6" cy="1355.2" r="184.3"/>
		<circle class="st2" cx="1305.6" cy="1242.8" r="224.1"/>
		<circle class="st2" cx="1239.8" cy="1351.3" r="224.1"/>
		<circle class="st2" cx="1542.6" cy="1053.8" r="156.3"/>
		<circle class="st2" cx="1686" cy="1308" r="224.1"/>
		<circle class="st2" cx="1535.8" cy="1319" r="251.1"/>
	</g>
</g>
</svg>
