<?xml version="1.0" encoding="utf-8"?>
<!-- Generator: Adobe Illustrator 22.1.0, SVG Export Plug-In . SVG Version: 6.00 Build 0)  -->
<svg version="1.1" id="defaulticon" xmlns="http://www.w3.org/2000/svg" xmlns:xlink="http://www.w3.org/1999/xlink" x="0px"
	 y="0px" viewBox="0 0 2160 2160" style="enable-background:new 0 0 2160 2160;" xml:space="preserve">
<style type="text/css">
	.st0{fill:none;stroke:#8EC665;stroke-miterlimit:10;}
	.st1{fill:#E2EDD8;}
	.st2{fill:#8EC665;}
</style>
<g id="defico_1_">
	<path id="defico4" class="st0" d="M1043.1,1862"/>
	<g id="defico3">
		<g>
			<g>
				<path class="st1" d="M704.8,288.2H1376c14.2,0,25.9-11.7,25.9-25.9c0-14.2-11.7-25.9-25.9-25.9H704.8
					c-14.2,0-25.9,11.7-25.9,25.9C678.9,276.5,690.6,288.2,704.8,288.2z"/>
				<path class="st1" d="M1386.7,1870.6c5.7-8,54-75.2,54-75.2l-9.3-1427.6l-57.2-79.6h-660l-57.2,79.6l9.3,1427.6l53.8,74.9h-6.8
					c-14.2,0-25.9,11.7-25.9,25.9c0,14.2,11.7,25.9,25.9,25.9h671.1c14.2,0,25.9-11.7,25.9-25.9
					C1410.2,1882.8,1399.8,1871.8,1386.7,1870.6z"/>
			</g>
			<polyline class="st2" points="1223,945.2 933.3,1632.9 990.1,1200.4 857.8,1265.2 1147.5,577.5 1090.1,1009.7 1090.3,1009.2 
				1222.6,944.5 			"/>
		</g>
		<path class="st1" d="M1193.9,172.2L783.6,369c-0.6,0.3-0.9,1-0.6,1.6l11.6,24.2c0.3,0.6,1,0.9,1.6,0.6l410.3-196.8
			c0.6-0.3,0.9-1,0.6-1.6l-11.6-24.2C1195.2,172.2,1194.5,171.9,1193.9,172.2z"/>
		<path class="st0" d="M1340.6,288.2"/>
		<path class="st0" d="M656.9,288.2"/>
		<path class="st0" d="M1486.2,1862"/>
		<path class="st0" d="M802.4,1862"/>
	</g>
	<path id="defico2" class="st2" d="M1387.9,1870.2H847.5c-2,0-3.6-1.6-3.6-3.6v-1.1c0-2,1.6-3.6,3.6-3.6h540.3c2,0,3.6,1.6,3.6,3.6
		v1.1C1391.4,1868.6,1389.8,1870.2,1387.9,1870.2z"/>
	<path id="defico" class="st2" d="M1247.9,296.8H707.6c-2,0-3.6-1.6-3.6-3.6v-1.1c0-2,1.6-3.6,3.6-3.6h540.3c2,0,3.6,1.6,3.6,3.6
		v1.1C1251.5,295.2,1249.9,296.8,1247.9,296.8z"/>
</g>
</svg>
