<?xml version="1.0" encoding="utf-8"?>
<!-- Generator: Adobe Illustrator 22.1.0, SVG Export Plug-In . SVG Version: 6.00 Build 0)  -->
<svg version="1.1" id="Layer_1" xmlns="http://www.w3.org/2000/svg" xmlns:xlink="http://www.w3.org/1999/xlink" x="0px" y="0px"
	 viewBox="0 0 2160 2160" style="enable-background:new 0 0 2160 2160;" xml:space="preserve">
<style type="text/css">
	.st0{fill:#D1D9DA;}
	.st1{fill:#9CC9D3;}
	.st2{fill:#B9E3E9;}
	.st3{fill:#F2F2EE;}
</style>
<g id="VCb21o_1_">
	<g>
		<g>
			<path class="st0" d="M816.1,1325.8c0-139.5,0.9-278.9-0.5-418.4c-0.4-42,15.7-72.9,51-91.2c118.8-61.6,239.1-61.5,358.2-0.9
				c36.7,18.7,52.8,50.3,52.6,93.5c-1.1,278.9-0.9,557.8-0.1,836.8c0.1,39.1-15.7,66.5-46.7,87.6c-90.4,61.5-275,62.1-366.8,1
				c-32.2-21.4-48.7-49.5-48.3-90C817,1604.7,816.1,1465.3,816.1,1325.8z M1253,1284.5c1.9-8.1,5.5-16.2,5.5-24.3
				c0.4-97.1,0.2-194.2,0.3-291.3c0-26-7.4-26.6-30-14.5c-119.1,63.8-240,61.9-360.9,3.6c-8.9-4.3-15.3-18.1-27.1-10.8
				c-10.3,6.5-6.4,19.2-6.5,29.4c-0.2,103.4-0.2,206.9-0.2,310.3c0.2,130.8,1.1,261.5,0.1,392.3c-0.3,41.4,15.8,71.1,50.4,91.7
				c50.5,30.1,106.7,37.4,164,39.2c49.2,0.9,96.7-9,141.2-29.1c41.1-18.5,65.1-47.1,63.9-98.1
				C1250.9,1550.3,1252.9,1417.4,1253,1284.5z M1057.6,980.4c50,0.9,109.4-5.7,162.1-40c48.7-31.7,49.1-72.1,2.2-105.7
				c-42.1-30.1-91.4-38.5-140.7-42.5c-74.6-6.1-148.2,1.2-212.4,44.7c-44.7,30.3-43.1,71.4,2.1,101.7
				C924.1,974.2,984.7,980.5,1057.6,980.4z"/>
			<path class="st1" d="M1048.7,1810.2c-57.4-1.8-113.5-9.1-164-39.2c-34.6-20.6-50.7-50.3-50.4-91.7c1-130.8,0.1-261.5-0.1-392.3
				c16.7-32.4,42.7-54.3,76.1-68c42.6-17.4,86.8-25.8,132.9-23.1c1.9,78,1.1,156,4.5,234.1
				C1053.3,1556.5,1048.9,1683.4,1048.7,1810.2z"/>
			<path class="st2" d="M1048.7,1810.2c0.2-126.8,4.6-253.7-1-380.2c-3.4-78.1-2.6-156.1-4.5-234.1c69.1-6.7,132.1,9.3,187.5,51.7
				c11.8,9,19.2,22,22.2,37c0,132.9-2,265.7,0.9,398.5c1.1,50.9-22.8,79.5-63.9,98.1C1145.4,1801.2,1098,1811.1,1048.7,1810.2z"/>
			<path class="st3" d="M1253,1284.5c-3-15-10.4-27.9-22.2-37c-55.4-42.4-118.4-58.5-187.5-51.7c-46.1-2.7-90.3,5.7-132.9,23.1
				c-33.4,13.7-59.4,35.6-76.1,68c0-103.4-0.1-206.9,0.2-310.3c0-10.2-3.9-22.9,6.5-29.4c11.8-7.4,18.2,6.5,27.1,10.8
				c120.9,58.3,241.8,60.2,360.9-3.6c22.6-12.1,30-11.5,30,14.5c0,97.1,0.1,194.2-0.3,291.3
				C1258.5,1268.4,1254.9,1276.5,1253,1284.5z"/>
			<path class="st3" d="M1057.6,980.4c-72.9,0.1-133.5-6.2-186.8-41.8c-45.2-30.2-46.8-71.4-2.1-101.7
				c64.2-43.5,137.8-50.8,212.4-44.7c49.3,4,98.6,12.4,140.7,42.5c46.9,33.6,46.5,74-2.2,105.7
				C1167,974.7,1107.6,981.3,1057.6,980.4z"/>
		</g>
	</g>
</g>
<path class="st2" d="M935,686.1c-10.1,4.1-23.9-59.7-81-85.5c-40.6-18.3-62.1,1-108-22.5c-11.6-6-54.3-27.8-54-58.5
	c0.3-27.8,35.6-53.5,67.5-58.5c79.1-12.4,144.8,101.5,148.5,108C938.5,623.3,944.5,682.2,935,686.1z"/>
<path class="st2" d="M1172.6,757.3c6.9,3.1,16.2-44.2,55.2-63.3c27.6-13.6,42.3,0.7,73.5-16.6c7.9-4.4,37-20.6,36.8-43.3
	c-0.2-20.5-24.2-39.6-46-43.3c-53.9-9.2-98.6,75.1-101.1,79.9C1170.2,710.9,1166.1,754.4,1172.6,757.3z"/>
<path class="st2" d="M1044.1,598.5c4-0.1-9.3-53.9,35.4-125.8c1.6-2.5,2.8-4.4,5.3-8.2c59.6-90.4,95.3-99.2,111.8-147.6
	c3-8.7,13.8-43.6-5.1-82.4c-7.2-14.8-16-31.9-40.7-41.2c-22.6-8.5-53.8-8.6-76.3,0c-12.2,4.7-41.7,19.6-50.8,116.7
	c-4.2,44.9-1.4,78.7,0,96.1C1031.4,499.5,1038.7,598.6,1044.1,598.5z"/>
</svg>
